<svg width="196" height="135" viewBox="0 0 196 135" fill="none" xmlns="http://www.w3.org/2000/svg">
<mask id="path-1-inside-1_1_390" fill="white">
<path d="M4 0.71875H196V134.719H4V0.71875Z"/>
</mask>
<path d="M196 133.719H4V135.719H196V133.719Z" fill="#E5E5E5" mask="url(#path-1-inside-1_1_390)"/>
<path d="M5.216 19.2947H7.216V24.4947L12.304 19.2947H14.768L10.208 23.8547L15.088 30.7188H12.592L8.848 25.2627L7.216 26.8787V30.7188H5.216V19.2947ZM15.9611 19.2947H17.7851V21.0227H15.9611V19.2947ZM15.9611 22.4467H17.7851V30.7188H15.9611V22.4467ZM27.5645 30.7188H25.8365V29.5987H25.8045C25.5592 30.0787 25.2018 30.4254 24.7325 30.6387C24.2632 30.8414 23.7672 30.9428 23.2445 30.9428C22.5938 30.9428 22.0232 30.8308 21.5325 30.6067C21.0525 30.3721 20.6525 30.0574 20.3325 29.6628C20.0125 29.2681 19.7725 28.8041 19.6125 28.2707C19.4525 27.7267 19.3725 27.1454 19.3725 26.5267C19.3725 25.7801 19.4738 25.1347 19.6765 24.5907C19.8792 24.0467 20.1458 23.5987 20.4765 23.2467C20.8178 22.8947 21.2018 22.6387 21.6285 22.4787C22.0658 22.3081 22.5085 22.2227 22.9565 22.2227C23.2125 22.2227 23.4738 22.2494 23.7405 22.3027C24.0072 22.3454 24.2632 22.4201 24.5085 22.5267C24.7538 22.6334 24.9778 22.7721 25.1805 22.9427C25.3938 23.1027 25.5698 23.2947 25.7085 23.5187H25.7405V19.2947H27.5645V30.7188ZM21.1965 26.6707C21.1965 27.0227 21.2392 27.3694 21.3245 27.7107C21.4205 28.0521 21.5592 28.3561 21.7405 28.6227C21.9325 28.8894 22.1725 29.1027 22.4605 29.2627C22.7485 29.4227 23.0898 29.5027 23.4845 29.5027C23.8898 29.5027 24.2365 29.4174 24.5245 29.2467C24.8232 29.0761 25.0632 28.8521 25.2445 28.5747C25.4365 28.2974 25.5752 27.9881 25.6605 27.6467C25.7565 27.2947 25.8045 26.9374 25.8045 26.5747C25.8045 25.6574 25.5965 24.9427 25.1805 24.4307C24.7752 23.9187 24.2205 23.6627 23.5165 23.6627C23.0898 23.6627 22.7272 23.7534 22.4285 23.9347C22.1405 24.1054 21.9005 24.3347 21.7085 24.6227C21.5272 24.9001 21.3938 25.2201 21.3085 25.5827C21.2338 25.9347 21.1965 26.2974 21.1965 26.6707ZM30.9298 28.0627C30.9831 28.5961 31.1858 28.9694 31.5378 29.1827C31.8898 29.3961 32.3111 29.5027 32.8018 29.5027C32.9724 29.5027 33.1644 29.4921 33.3778 29.4707C33.6018 29.4387 33.8098 29.3854 34.0018 29.3107C34.1938 29.2361 34.3484 29.1294 34.4658 28.9907C34.5938 28.8414 34.6524 28.6494 34.6418 28.4147C34.6311 28.1801 34.5458 27.9881 34.3858 27.8387C34.2258 27.6894 34.0178 27.5721 33.7618 27.4867C33.5164 27.3907 33.2338 27.3107 32.9138 27.2467C32.5938 27.1827 32.2684 27.1134 31.9378 27.0387C31.5964 26.9641 31.2658 26.8734 30.9457 26.7667C30.6364 26.6601 30.3538 26.5161 30.0978 26.3347C29.8524 26.1534 29.6551 25.9241 29.5058 25.6467C29.3564 25.3587 29.2818 25.0067 29.2818 24.5907C29.2818 24.1427 29.3884 23.7694 29.6018 23.4707C29.8258 23.1614 30.1031 22.9161 30.4338 22.7347C30.7751 22.5427 31.1484 22.4094 31.5538 22.3347C31.9698 22.2601 32.3644 22.2227 32.7378 22.2227C33.1644 22.2227 33.5698 22.2707 33.9538 22.3667C34.3484 22.4521 34.7004 22.5961 35.0098 22.7987C35.3298 23.0014 35.5911 23.2681 35.7938 23.5987C36.0071 23.9187 36.1404 24.3081 36.1938 24.7667H34.2898C34.2044 24.3294 34.0018 24.0361 33.6818 23.8867C33.3724 23.7374 33.0151 23.6627 32.6098 23.6627C32.4818 23.6627 32.3271 23.6734 32.1458 23.6947C31.9751 23.7161 31.8098 23.7587 31.6498 23.8227C31.5004 23.8761 31.3724 23.9614 31.2658 24.0787C31.1591 24.1854 31.1058 24.3294 31.1058 24.5107C31.1058 24.7347 31.1804 24.9161 31.3298 25.0547C31.4898 25.1934 31.6924 25.3107 31.9378 25.4067C32.1938 25.4921 32.4818 25.5667 32.8018 25.6307C33.1218 25.6947 33.4524 25.7641 33.7938 25.8387C34.1244 25.9134 34.4498 26.0041 34.7698 26.1107C35.0898 26.2174 35.3724 26.3614 35.6178 26.5427C35.8738 26.7241 36.0764 26.9534 36.2258 27.2307C36.3858 27.5081 36.4658 27.8494 36.4658 28.2547C36.4658 28.7454 36.3538 29.1614 36.1298 29.5027C35.9058 29.8441 35.6124 30.1214 35.2498 30.3347C34.8978 30.5481 34.5031 30.7027 34.0658 30.7988C33.6284 30.8948 33.1964 30.9428 32.7698 30.9428C32.2471 30.9428 31.7618 30.8841 31.3138 30.7668C30.8764 30.6494 30.4924 30.4734 30.1618 30.2387C29.8418 29.9934 29.5858 29.6947 29.3938 29.3427C29.2124 28.9801 29.1164 28.5534 29.1058 28.0627H30.9298Z" fill="#111111"/>
<path d="M177.53 27.9554C177.133 27.5718 177.122 26.9387 177.505 26.5414L183.062 20.7867L184.501 22.176L178.944 27.9307C178.56 28.328 177.927 28.3391 177.53 27.9554Z" fill="black"/>
<path d="M183.25 20.7871L188.807 26.5418C189.191 26.9391 189.18 27.5722 188.783 27.9558C188.385 28.3395 187.752 28.3284 187.369 27.9312L181.811 22.1764L183.25 20.7871Z" fill="black"/>
<path d="M30.595 68.6137V65.2087H33.445C33.755 65.2087 34.045 65.2287 34.315 65.2687C34.595 65.2987 34.84 65.3737 35.05 65.4937C35.26 65.6137 35.425 65.7837 35.545 66.0037C35.665 66.2237 35.725 66.5237 35.725 66.9037C35.725 67.4737 35.545 67.9037 35.185 68.1937C34.835 68.4737 34.255 68.6137 33.445 68.6137H30.595ZM29.17 64.0087V74.7188H34.345C34.875 74.7188 35.34 74.6337 35.74 74.4637C36.15 74.2837 36.49 74.0537 36.76 73.7737C37.04 73.4837 37.25 73.1537 37.39 72.7837C37.53 72.4137 37.6 72.0337 37.6 71.6437C37.6 70.9837 37.425 70.4237 37.075 69.9637C36.725 69.5037 36.22 69.2037 35.56 69.0637V69.0337C36.07 68.8337 36.46 68.5287 36.73 68.1187C37.01 67.6987 37.15 67.2037 37.15 66.6337C37.15 66.0937 37.025 65.6387 36.775 65.2687C36.535 64.8987 36.24 64.6087 35.89 64.3987C35.73 64.2987 35.535 64.2237 35.305 64.1737C35.085 64.1237 34.845 64.0887 34.585 64.0687C34.325 64.0387 34.06 64.0237 33.79 64.0237C33.53 64.0137 33.285 64.0087 33.055 64.0087H29.17ZM30.595 73.5187V69.8137H33.85C34.15 69.8137 34.44 69.8437 34.72 69.9037C35 69.9537 35.245 70.0487 35.455 70.1887C35.675 70.3187 35.85 70.4987 35.98 70.7287C36.11 70.9587 36.175 71.2487 36.175 71.5987C36.175 72.1987 35.995 72.6687 35.635 73.0087C35.285 73.3487 34.795 73.5187 34.165 73.5187H30.595ZM40.1586 70.8487C40.1586 70.3787 40.2186 69.9637 40.3386 69.6037C40.4686 69.2337 40.6436 68.9237 40.8636 68.6737C41.0836 68.4237 41.3386 68.2337 41.6286 68.1037C41.9286 67.9737 42.2436 67.9087 42.5736 67.9087C42.9036 67.9087 43.2136 67.9737 43.5036 68.1037C43.8036 68.2337 44.0636 68.4237 44.2836 68.6737C44.5036 68.9237 44.6736 69.2337 44.7936 69.6037C44.9236 69.9637 44.9886 70.3787 44.9886 70.8487C44.9886 71.3187 44.9236 71.7387 44.7936 72.1087C44.6736 72.4687 44.5036 72.7737 44.2836 73.0237C44.0636 73.2637 43.8036 73.4487 43.5036 73.5787C43.2136 73.7087 42.9036 73.7737 42.5736 73.7737C42.2436 73.7737 41.9286 73.7087 41.6286 73.5787C41.3386 73.4487 41.0836 73.2637 40.8636 73.0237C40.6436 72.7737 40.4686 72.4687 40.3386 72.1087C40.2186 71.7387 40.1586 71.3187 40.1586 70.8487ZM38.8086 70.8487C38.8086 71.4187 38.8886 71.9487 39.0486 72.4387C39.2086 72.9287 39.4486 73.3587 39.7686 73.7288C40.0886 74.0887 40.4836 74.3737 40.9536 74.5837C41.4236 74.7838 41.9636 74.8838 42.5736 74.8838C43.1936 74.8838 43.7336 74.7838 44.1936 74.5837C44.6636 74.3737 45.0586 74.0887 45.3786 73.7288C45.6986 73.3587 45.9386 72.9287 46.0986 72.4387C46.2586 71.9487 46.3386 71.4187 46.3386 70.8487C46.3386 70.2787 46.2586 69.7487 46.0986 69.2587C45.9386 68.7587 45.6986 68.3287 45.3786 67.9687C45.0586 67.5987 44.6636 67.3087 44.1936 67.0987C43.7336 66.8887 43.1936 66.7837 42.5736 66.7837C41.9636 66.7837 41.4236 66.8887 40.9536 67.0987C40.4836 67.3087 40.0886 67.5987 39.7686 67.9687C39.4486 68.3287 39.2086 68.7587 39.0486 69.2587C38.8886 69.7487 38.8086 70.2787 38.8086 70.8487ZM50.8868 75.7538C50.7368 76.1338 50.5868 76.4538 50.4368 76.7138C50.2968 76.9738 50.1368 77.1838 49.9568 77.3438C49.7868 77.5138 49.5918 77.6338 49.3718 77.7038C49.1618 77.7838 48.9168 77.8238 48.6368 77.8238C48.4868 77.8238 48.3368 77.8138 48.1868 77.7938C48.0368 77.7738 47.8918 77.7388 47.7518 77.6888V76.5188C47.8618 76.5688 47.9868 76.6088 48.1268 76.6388C48.2768 76.6788 48.4018 76.6987 48.5018 76.6987C48.7618 76.6987 48.9768 76.6338 49.1468 76.5038C49.3268 76.3838 49.4618 76.2088 49.5518 75.9788L50.0768 74.6737L47.0018 66.9637H48.4418L50.7068 73.3087H50.7368L52.9118 66.9637H54.2618L50.8868 75.7538ZM56.1218 72.2737H54.8468C54.8668 72.7537 54.9668 73.1637 55.1468 73.5037C55.3268 73.8337 55.5668 74.1037 55.8668 74.3137C56.1668 74.5137 56.5118 74.6587 56.9018 74.7488C57.2918 74.8388 57.7018 74.8838 58.1318 74.8838C58.5218 74.8838 58.9118 74.8438 59.3018 74.7638C59.7018 74.6937 60.0568 74.5637 60.3668 74.3737C60.6868 74.1837 60.9418 73.9337 61.1318 73.6237C61.3318 73.3137 61.4318 72.9237 61.4318 72.4537C61.4318 72.0837 61.3568 71.7737 61.2068 71.5237C61.0668 71.2737 60.8768 71.0687 60.6368 70.9087C60.4068 70.7387 60.1368 70.6037 59.8268 70.5037C59.5268 70.4037 59.2168 70.3187 58.8968 70.2487C58.5968 70.1787 58.2968 70.1137 57.9968 70.0537C57.6968 69.9837 57.4268 69.9037 57.1868 69.8137C56.9468 69.7137 56.7468 69.5937 56.5868 69.4537C56.4368 69.3037 56.3618 69.1187 56.3618 68.8987C56.3618 68.6987 56.4118 68.5387 56.5118 68.4187C56.6118 68.2887 56.7418 68.1887 56.9018 68.1187C57.0618 68.0387 57.2368 67.9837 57.4268 67.9537C57.6268 67.9237 57.8218 67.9087 58.0118 67.9087C58.2218 67.9087 58.4268 67.9337 58.6268 67.9837C58.8368 68.0237 59.0268 68.0937 59.1968 68.1937C59.3668 68.2937 59.5068 68.4287 59.6168 68.5987C59.7268 68.7587 59.7918 68.9637 59.8118 69.2137H61.0868C61.0568 68.7437 60.9568 68.3537 60.7868 68.0437C60.6168 67.7237 60.3868 67.4737 60.0968 67.2937C59.8168 67.1037 59.4918 66.9737 59.1218 66.9037C58.7518 66.8237 58.3468 66.7837 57.9068 66.7837C57.5668 66.7837 57.2218 66.8287 56.8718 66.9187C56.5318 66.9987 56.2218 67.1287 55.9418 67.3087C55.6718 67.4787 55.4468 67.7037 55.2668 67.9837C55.0968 68.2637 55.0118 68.5987 55.0118 68.9887C55.0118 69.4887 55.1368 69.8787 55.3868 70.1587C55.6368 70.4387 55.9468 70.6587 56.3168 70.8187C56.6968 70.9687 57.1068 71.0887 57.5468 71.1787C57.9868 71.2587 58.3918 71.3537 58.7618 71.4637C59.1418 71.5637 59.4568 71.6987 59.7068 71.8687C59.9568 72.0387 60.0818 72.2887 60.0818 72.6187C60.0818 72.8587 60.0218 73.0587 59.9018 73.2187C59.7818 73.3687 59.6268 73.4837 59.4368 73.5637C59.2568 73.6437 59.0568 73.6987 58.8368 73.7288C58.6168 73.7587 58.4068 73.7737 58.2068 73.7737C57.9468 73.7737 57.6918 73.7487 57.4418 73.6987C57.2018 73.6487 56.9818 73.5687 56.7818 73.4587C56.5918 73.3387 56.4368 73.1837 56.3168 72.9937C56.1968 72.7937 56.1318 72.5537 56.1218 72.2737Z" fill="#111111"/>
<rect x="2.5" y="60.2188" width="19" height="19" rx="3.5" stroke="#CCCCCC"/>
<path d="M37.792 101.295L38.192 102.719H39.152V96.7027H34.144V97.9827H37.792C37.8133 98.5054 37.744 98.9961 37.584 99.4547C37.424 99.9027 37.184 100.297 36.864 100.639C36.5547 100.969 36.1707 101.231 35.712 101.423C35.2533 101.615 34.7253 101.711 34.128 101.711C33.488 101.711 32.9227 101.588 32.432 101.343C31.952 101.087 31.5467 100.751 31.216 100.335C30.8853 99.9081 30.6347 99.4227 30.464 98.8787C30.2933 98.3241 30.208 97.7481 30.208 97.1507C30.208 96.5427 30.2827 95.9507 30.432 95.3747C30.5813 94.7881 30.8107 94.2707 31.12 93.8227C31.44 93.3641 31.8453 92.9961 32.336 92.7188C32.8373 92.4414 33.4347 92.3027 34.128 92.3027C34.5547 92.3027 34.9547 92.3561 35.328 92.4627C35.712 92.5587 36.0533 92.7081 36.352 92.9107C36.6507 93.1134 36.9013 93.3747 37.104 93.6947C37.3067 94.0041 37.4453 94.3774 37.52 94.8147H39.04C38.9333 94.1427 38.7307 93.5721 38.432 93.1027C38.144 92.6227 37.7813 92.2281 37.344 91.9187C36.9173 91.6094 36.4267 91.3854 35.872 91.2467C35.328 91.0974 34.7467 91.0227 34.128 91.0227C33.2213 91.0227 32.4267 91.1934 31.744 91.5347C31.072 91.8654 30.5067 92.3134 30.048 92.8787C29.6 93.4441 29.2587 94.1054 29.024 94.8627C28.8 95.6094 28.688 96.3987 28.688 97.2307C28.688 97.9774 28.8107 98.6974 29.056 99.3907C29.3013 100.084 29.6587 100.697 30.128 101.231C30.5973 101.764 31.168 102.191 31.84 102.511C32.512 102.82 33.2747 102.975 34.128 102.975C34.8 102.975 35.4667 102.847 36.128 102.591C36.7893 102.324 37.344 101.892 37.792 101.295ZM42.6046 92.9587V91.2947H41.2446V92.9587H42.6046ZM41.2446 94.4467V102.719H42.6046V94.4467H41.2446ZM44.6635 94.4467V102.719H46.0235V99.0387C46.0235 98.5054 46.0768 98.0361 46.1835 97.6307C46.2902 97.2147 46.4608 96.8627 46.6955 96.5747C46.9302 96.2867 47.2395 96.0681 47.6235 95.9187C48.0075 95.7694 48.4715 95.6947 49.0155 95.6947V94.2547C48.2795 94.2334 47.6715 94.3827 47.1915 94.7027C46.7115 95.0227 46.3062 95.5187 45.9755 96.1907H45.9435V94.4467H44.6635ZM50.1196 91.2947V102.719H51.4796V91.2947H50.1196ZM54.4185 100.111H53.0585C53.0798 100.623 53.1865 101.06 53.3785 101.423C53.5705 101.775 53.8265 102.063 54.1465 102.287C54.4665 102.5 54.8345 102.655 55.2505 102.751C55.6665 102.847 56.1038 102.895 56.5625 102.895C56.9785 102.895 57.3945 102.852 57.8105 102.767C58.2372 102.692 58.6158 102.553 58.9465 102.351C59.2878 102.148 59.5598 101.881 59.7625 101.551C59.9758 101.22 60.0825 100.804 60.0825 100.303C60.0825 99.9081 60.0025 99.5774 59.8425 99.3107C59.6932 99.0441 59.4905 98.8254 59.2345 98.6547C58.9892 98.4734 58.7012 98.3294 58.3705 98.2227C58.0505 98.1161 57.7198 98.0254 57.3785 97.9507C57.0585 97.8761 56.7385 97.8067 56.4185 97.7427C56.0985 97.6681 55.8105 97.5827 55.5545 97.4867C55.2985 97.3801 55.0852 97.2521 54.9145 97.1027C54.7545 96.9427 54.6745 96.7454 54.6745 96.5107C54.6745 96.2974 54.7278 96.1267 54.8345 95.9987C54.9412 95.8601 55.0798 95.7534 55.2505 95.6787C55.4212 95.5934 55.6078 95.5347 55.8105 95.5027C56.0238 95.4707 56.2318 95.4547 56.4345 95.4547C56.6585 95.4547 56.8772 95.4814 57.0905 95.5347C57.3145 95.5774 57.5172 95.6521 57.6985 95.7587C57.8798 95.8654 58.0292 96.0094 58.1465 96.1907C58.2638 96.3614 58.3332 96.5801 58.3545 96.8467H59.7145C59.6825 96.3454 59.5758 95.9294 59.3945 95.5987C59.2132 95.2574 58.9678 94.9907 58.6585 94.7987C58.3598 94.5961 58.0132 94.4574 57.6185 94.3827C57.2238 94.2974 56.7918 94.2547 56.3225 94.2547C55.9598 94.2547 55.5918 94.3027 55.2185 94.3987C54.8558 94.4841 54.5252 94.6227 54.2265 94.8147C53.9385 94.9961 53.6985 95.2361 53.5065 95.5347C53.3252 95.8334 53.2345 96.1907 53.2345 96.6067C53.2345 97.1401 53.3678 97.5561 53.6345 97.8547C53.9012 98.1534 54.2318 98.3881 54.6265 98.5587C55.0318 98.7187 55.4692 98.8467 55.9385 98.9427C56.4078 99.0281 56.8398 99.1294 57.2345 99.2467C57.6398 99.3534 57.9758 99.4974 58.2425 99.6787C58.5092 99.8601 58.6425 100.127 58.6425 100.479C58.6425 100.735 58.5785 100.948 58.4505 101.119C58.3225 101.279 58.1572 101.401 57.9545 101.487C57.7625 101.572 57.5492 101.631 57.3145 101.663C57.0798 101.695 56.8558 101.711 56.6425 101.711C56.3652 101.711 56.0932 101.684 55.8265 101.631C55.5705 101.577 55.3358 101.492 55.1225 101.375C54.9198 101.247 54.7545 101.081 54.6265 100.879C54.4985 100.665 54.4292 100.409 54.4185 100.111Z" fill="#111111"/>
<rect x="2.5" y="88.2188" width="19" height="19" rx="3.5" stroke="#CCCCCC"/>
</svg>
