<svg width="196" height="164" viewBox="0 0 196 164" fill="none" xmlns="http://www.w3.org/2000/svg">
<mask id="path-1-inside-1_1_373" fill="white">
<path d="M4 0.71875H196V163.719H4V0.71875Z"/>
</mask>
<path d="M4 1.71875H196V-0.28125H4V1.71875ZM196 162.719H4V164.719H196V162.719Z" fill="#E5E5E5" mask="url(#path-1-inside-1_1_373)"/>
<path d="M15.184 31.7188H13.904L13.6 30.3747C13.0667 30.9827 12.5333 31.4041 12 31.6387C11.4667 31.8734 10.8533 31.9908 10.16 31.9908C9.30667 31.9908 8.53867 31.8361 7.856 31.5267C7.184 31.2067 6.61333 30.7747 6.144 30.2307C5.67467 29.6867 5.312 29.0521 5.056 28.3267C4.81067 27.6014 4.688 26.8281 4.688 26.0067C4.688 25.1961 4.81067 24.4281 5.056 23.7027C5.312 22.9774 5.67467 22.3427 6.144 21.7987C6.61333 21.2547 7.184 20.8227 7.856 20.5027C8.53867 20.1827 9.30667 20.0227 10.16 20.0227C10.7787 20.0227 11.3653 20.1081 11.92 20.2787C12.4853 20.4387 12.9867 20.6841 13.424 21.0147C13.8613 21.3347 14.224 21.7401 14.512 22.2307C14.8 22.7214 14.9813 23.2867 15.056 23.9267H13.104C13.0507 23.5534 12.9333 23.2281 12.752 22.9507C12.5813 22.6627 12.3627 22.4227 12.096 22.2307C11.8293 22.0387 11.5307 21.8947 11.2 21.7987C10.8693 21.7027 10.5227 21.6547 10.16 21.6547C9.552 21.6547 9.024 21.7774 8.576 22.0227C8.13867 22.2681 7.78133 22.5987 7.504 23.0147C7.22667 23.4201 7.01867 23.8841 6.88 24.4067C6.752 24.9294 6.688 25.4627 6.688 26.0067C6.688 26.5507 6.752 27.0841 6.88 27.6068C7.01867 28.1294 7.22667 28.5987 7.504 29.0147C7.78133 29.4201 8.13867 29.7454 8.576 29.9907C9.024 30.2361 9.552 30.3587 10.16 30.3587C10.672 30.3694 11.1253 30.3054 11.52 30.1667C11.9147 30.0174 12.2453 29.8094 12.512 29.5427C12.7893 29.2654 12.9973 28.9294 13.136 28.5347C13.2747 28.1401 13.3493 27.7027 13.36 27.2227H10.32V25.7027H15.184V31.7188ZM22.7806 26.8547C22.7593 26.5667 22.6953 26.2894 22.5886 26.0227C22.4926 25.7561 22.354 25.5267 22.1726 25.3347C22.002 25.1321 21.7886 24.9721 21.5326 24.8547C21.2873 24.7267 21.01 24.6627 20.7006 24.6627C20.3806 24.6627 20.0873 24.7214 19.8206 24.8387C19.5646 24.9454 19.3406 25.1001 19.1486 25.3027C18.9673 25.4947 18.818 25.7241 18.7006 25.9907C18.594 26.2574 18.5353 26.5454 18.5246 26.8547H22.7806ZM18.5246 28.0547C18.5246 28.3747 18.5673 28.6841 18.6526 28.9827C18.7486 29.2814 18.8873 29.5427 19.0686 29.7667C19.25 29.9907 19.4793 30.1721 19.7566 30.3107C20.034 30.4387 20.3646 30.5027 20.7486 30.5027C21.282 30.5027 21.7086 30.3907 22.0286 30.1667C22.3593 29.9321 22.6046 29.5854 22.7646 29.1267H24.4926C24.3966 29.5747 24.2313 29.9747 23.9966 30.3267C23.762 30.6787 23.4793 30.9774 23.1486 31.2227C22.818 31.4574 22.4446 31.6334 22.0286 31.7508C21.6233 31.8788 21.1966 31.9428 20.7486 31.9428C20.098 31.9428 19.522 31.8361 19.0206 31.6227C18.5193 31.4094 18.0926 31.1107 17.7406 30.7267C17.3993 30.3427 17.138 29.8841 16.9566 29.3507C16.786 28.8174 16.7006 28.2307 16.7006 27.5907C16.7006 27.0041 16.7913 26.4494 16.9726 25.9267C17.1646 25.3934 17.4313 24.9294 17.7726 24.5347C18.1246 24.1294 18.546 23.8094 19.0366 23.5747C19.5273 23.3401 20.082 23.2227 20.7006 23.2227C21.3513 23.2227 21.9326 23.3614 22.4446 23.6388C22.9673 23.9054 23.3993 24.2627 23.7406 24.7107C24.082 25.1587 24.3273 25.6761 24.4766 26.2627C24.6366 26.8387 24.6793 27.4361 24.6046 28.0547H18.5246ZM25.9913 23.4467H27.7193V24.6627L27.7513 24.6947C28.0286 24.2361 28.3913 23.8787 28.8393 23.6227C29.2873 23.3561 29.7833 23.2227 30.3273 23.2227C31.2339 23.2227 31.9486 23.4574 32.4713 23.9267C32.9939 24.3961 33.2552 25.1001 33.2552 26.0387V31.7188H31.4313V26.5187C31.4099 25.8681 31.2713 25.3987 31.0153 25.1107C30.7593 24.8121 30.3593 24.6627 29.8153 24.6627C29.5059 24.6627 29.2286 24.7214 28.9833 24.8387C28.7379 24.9454 28.5299 25.1001 28.3593 25.3027C28.1886 25.4947 28.0553 25.7241 27.9593 25.9907C27.8633 26.2574 27.8153 26.5401 27.8153 26.8387V31.7188H25.9913V23.4467ZM42.9708 31.7188H41.2428V30.5987H41.2108C40.9654 31.0787 40.6081 31.4254 40.1388 31.6387C39.6694 31.8414 39.1734 31.9428 38.6508 31.9428C38.0001 31.9428 37.4294 31.8308 36.9388 31.6067C36.4588 31.3721 36.0588 31.0574 35.7388 30.6628C35.4188 30.2681 35.1788 29.8041 35.0188 29.2707C34.8588 28.7267 34.7788 28.1454 34.7788 27.5267C34.7788 26.7801 34.8801 26.1347 35.0828 25.5907C35.2854 25.0467 35.5521 24.5987 35.8828 24.2467C36.2241 23.8947 36.6081 23.6387 37.0348 23.4787C37.4721 23.3081 37.9148 23.2227 38.3628 23.2227C38.6188 23.2227 38.8801 23.2494 39.1468 23.3027C39.4134 23.3454 39.6694 23.4201 39.9148 23.5267C40.1601 23.6334 40.3841 23.7721 40.5868 23.9427C40.8001 24.1027 40.9761 24.2947 41.1148 24.5187H41.1468V20.2947H42.9708V31.7188ZM36.6028 27.6707C36.6028 28.0227 36.6454 28.3694 36.7308 28.7107C36.8268 29.0521 36.9654 29.3561 37.1468 29.6227C37.3388 29.8894 37.5788 30.1027 37.8668 30.2627C38.1548 30.4227 38.4961 30.5027 38.8908 30.5027C39.2961 30.5027 39.6428 30.4174 39.9308 30.2467C40.2294 30.0761 40.4694 29.8521 40.6508 29.5747C40.8428 29.2974 40.9814 28.9881 41.0668 28.6467C41.1628 28.2947 41.2108 27.9374 41.2108 27.5747C41.2108 26.6574 41.0028 25.9427 40.5868 25.4307C40.1814 24.9187 39.6268 24.6627 38.9227 24.6627C38.4961 24.6627 38.1334 24.7534 37.8348 24.9347C37.5468 25.1054 37.3068 25.3347 37.1148 25.6227C36.9334 25.9001 36.8001 26.2201 36.7148 26.5827C36.6401 26.9347 36.6028 27.2974 36.6028 27.6707ZM50.64 26.8547C50.6187 26.5667 50.5547 26.2894 50.448 26.0227C50.352 25.7561 50.2133 25.5267 50.032 25.3347C49.8613 25.1321 49.648 24.9721 49.392 24.8547C49.1467 24.7267 48.8693 24.6627 48.56 24.6627C48.24 24.6627 47.9467 24.7214 47.68 24.8387C47.424 24.9454 47.2 25.1001 47.008 25.3027C46.8267 25.4947 46.6773 25.7241 46.56 25.9907C46.4533 26.2574 46.3947 26.5454 46.384 26.8547H50.64ZM46.384 28.0547C46.384 28.3747 46.4267 28.6841 46.512 28.9827C46.608 29.2814 46.7467 29.5427 46.928 29.7667C47.1093 29.9907 47.3387 30.1721 47.616 30.3107C47.8933 30.4387 48.224 30.5027 48.608 30.5027C49.1413 30.5027 49.568 30.3907 49.888 30.1667C50.2187 29.9321 50.464 29.5854 50.624 29.1267H52.352C52.256 29.5747 52.0907 29.9747 51.856 30.3267C51.6213 30.6787 51.3387 30.9774 51.008 31.2227C50.6773 31.4574 50.304 31.6334 49.888 31.7508C49.4827 31.8788 49.056 31.9428 48.608 31.9428C47.9573 31.9428 47.3813 31.8361 46.88 31.6227C46.3787 31.4094 45.952 31.1107 45.6 30.7267C45.2587 30.3427 44.9973 29.8841 44.816 29.3507C44.6453 28.8174 44.56 28.2307 44.56 27.5907C44.56 27.0041 44.6507 26.4494 44.832 25.9267C45.024 25.3934 45.2907 24.9294 45.632 24.5347C45.984 24.1294 46.4053 23.8094 46.896 23.5747C47.3867 23.3401 47.9413 23.2227 48.56 23.2227C49.2107 23.2227 49.792 23.3614 50.304 23.6388C50.8267 23.9054 51.2587 24.2627 51.6 24.7107C51.9413 25.1587 52.1867 25.6761 52.336 26.2627C52.496 26.8387 52.5387 27.4361 52.464 28.0547H46.384ZM53.8506 23.4467H55.5626V25.0467H55.5946C55.648 24.8227 55.7493 24.6041 55.8986 24.3907C56.0586 24.1774 56.2453 23.9854 56.4586 23.8147C56.6826 23.6334 56.928 23.4894 57.1946 23.3827C57.4613 23.2761 57.7333 23.2227 58.0106 23.2227C58.224 23.2227 58.368 23.2281 58.4426 23.2387C58.528 23.2494 58.6133 23.2601 58.6986 23.2708V25.0307C58.5706 25.0094 58.4373 24.9934 58.2986 24.9827C58.1706 24.9614 58.0426 24.9507 57.9146 24.9507C57.6053 24.9507 57.312 25.0147 57.0346 25.1427C56.768 25.2601 56.5333 25.4414 56.3306 25.6867C56.128 25.9214 55.968 26.2147 55.8506 26.5667C55.7333 26.9187 55.6746 27.3241 55.6746 27.7827V31.7188H53.8506V23.4467Z" fill="#111111"/>
<path d="M177.53 28.9554C177.133 28.5718 177.122 27.9387 177.505 27.5414L183.062 21.7867L184.501 23.176L178.944 28.9307C178.56 29.328 177.927 29.3391 177.53 28.9554Z" fill="black"/>
<path d="M183.25 21.7871L188.807 27.5418C189.191 27.9391 189.18 28.5722 188.783 28.9558C188.385 29.3395 187.752 29.3284 187.369 28.9312L181.811 23.1764L183.25 21.7871Z" fill="black"/>
<path d="M29.2 65.0087V75.7188H30.55V66.8087H30.58L33.925 75.7188H35.14L38.485 66.8087H38.515V75.7188H39.865V65.0087H37.915L34.525 74.0087L31.15 65.0087H29.2ZM47.4114 71.0987H42.9564C42.9764 70.7987 43.0414 70.5187 43.1514 70.2587C43.2614 69.9887 43.4114 69.7537 43.6014 69.5537C43.7914 69.3537 44.0164 69.1987 44.2764 69.0887C44.5464 68.9687 44.8464 68.9087 45.1764 68.9087C45.4964 68.9087 45.7864 68.9687 46.0464 69.0887C46.3164 69.1987 46.5464 69.3537 46.7364 69.5537C46.9364 69.7437 47.0914 69.9737 47.2014 70.2437C47.3214 70.5137 47.3914 70.7987 47.4114 71.0987ZM48.6414 73.2587H47.3814C47.2714 73.7687 47.0414 74.1487 46.6914 74.3987C46.3514 74.6487 45.9114 74.7737 45.3714 74.7737C44.9514 74.7737 44.5864 74.7037 44.2764 74.5637C43.9664 74.4237 43.7114 74.2387 43.5114 74.0087C43.3114 73.7687 43.1664 73.4987 43.0764 73.1987C42.9864 72.8887 42.9464 72.5637 42.9564 72.2237H48.7614C48.7814 71.7537 48.7364 71.2587 48.6264 70.7387C48.5264 70.2187 48.3364 69.7387 48.0564 69.2987C47.7864 68.8587 47.4214 68.4987 46.9614 68.2188C46.5114 67.9287 45.9414 67.7837 45.2514 67.7837C44.7214 67.7837 44.2314 67.8837 43.7814 68.0837C43.3414 68.2837 42.9564 68.5637 42.6264 68.9237C42.3064 69.2837 42.0564 69.7087 41.8764 70.1987C41.6964 70.6887 41.6064 71.2287 41.6064 71.8187C41.6264 72.4087 41.7114 72.9537 41.8614 73.4537C42.0214 73.9537 42.2564 74.3837 42.5664 74.7437C42.8764 75.1037 43.2564 75.3837 43.7064 75.5837C44.1664 75.7838 44.7064 75.8838 45.3264 75.8838C46.2064 75.8838 46.9364 75.6638 47.5164 75.2238C48.0964 74.7837 48.4714 74.1287 48.6414 73.2587ZM50.083 67.9637V75.7188H51.358V71.3387C51.358 70.9887 51.403 70.6687 51.493 70.3787C51.593 70.0787 51.738 69.8187 51.928 69.5987C52.118 69.3787 52.353 69.2087 52.633 69.0887C52.923 68.9687 53.263 68.9087 53.653 68.9087C54.143 68.9087 54.528 69.0487 54.808 69.3287C55.088 69.6087 55.228 69.9887 55.228 70.4687V75.7188H56.503V70.6187C56.503 70.1987 56.458 69.8187 56.368 69.4787C56.288 69.1287 56.143 68.8287 55.933 68.5787C55.723 68.3287 55.448 68.1337 55.108 67.9937C54.768 67.8537 54.343 67.7837 53.833 67.7837C52.683 67.7837 51.843 68.2537 51.313 69.1937H51.283V67.9637H50.083Z" fill="#111111"/>
<rect x="2.5" y="61.2188" width="19" height="19" rx="3.5" stroke="#CCCCCC"/>
<path d="M39.568 103.719L42.624 92.2947H41.104L38.784 101.799H38.752L36.224 92.2947H34.576L32.016 101.799H31.984L29.744 92.2947H28.192L31.12 103.719H32.704L35.344 94.1187H35.376L37.984 103.719H39.568ZM43.9223 99.5907C43.9223 99.0894 43.9863 98.6467 44.1143 98.2627C44.2529 97.8681 44.4396 97.5374 44.6743 97.2707C44.9089 97.0041 45.1809 96.8014 45.4903 96.6627C45.8103 96.5241 46.1463 96.4547 46.4983 96.4547C46.8503 96.4547 47.1809 96.5241 47.4903 96.6627C47.8103 96.8014 48.0876 97.0041 48.3223 97.2707C48.5569 97.5374 48.7383 97.8681 48.8663 98.2627C49.0049 98.6467 49.0743 99.0894 49.0743 99.5907C49.0743 100.092 49.0049 100.54 48.8663 100.935C48.7383 101.319 48.5569 101.644 48.3223 101.911C48.0876 102.167 47.8103 102.364 47.4903 102.503C47.1809 102.641 46.8503 102.711 46.4983 102.711C46.1463 102.711 45.8103 102.641 45.4903 102.503C45.1809 102.364 44.9089 102.167 44.6743 101.911C44.4396 101.644 44.2529 101.319 44.1143 100.935C43.9863 100.54 43.9223 100.092 43.9223 99.5907ZM42.4823 99.5907C42.4823 100.199 42.5676 100.764 42.7383 101.287C42.9089 101.809 43.1649 102.268 43.5063 102.663C43.8476 103.047 44.2689 103.351 44.7703 103.575C45.2716 103.788 45.8476 103.895 46.4983 103.895C47.1596 103.895 47.7356 103.788 48.2263 103.575C48.7276 103.351 49.1489 103.047 49.4903 102.663C49.8316 102.268 50.0876 101.809 50.2583 101.287C50.4289 100.764 50.5143 100.199 50.5143 99.5907C50.5143 98.9827 50.4289 98.4174 50.2583 97.8947C50.0876 97.3614 49.8316 96.9027 49.4903 96.5187C49.1489 96.1241 48.7276 95.8147 48.2263 95.5907C47.7356 95.3667 47.1596 95.2547 46.4983 95.2547C45.8476 95.2547 45.2716 95.3667 44.7703 95.5907C44.2689 95.8147 43.8476 96.1241 43.5063 96.5187C43.1649 96.9027 42.9089 97.3614 42.7383 97.8947C42.5676 98.4174 42.4823 98.9827 42.4823 99.5907ZM52.1178 95.4467V103.719H53.4778V98.5667C53.4778 98.4067 53.5151 98.2094 53.5898 97.9747C53.6751 97.7294 53.8031 97.4947 53.9738 97.2707C54.1551 97.0467 54.3844 96.8547 54.6618 96.6947C54.9498 96.5347 55.2911 96.4547 55.6858 96.4547C55.9951 96.4547 56.2458 96.5027 56.4378 96.5987C56.6404 96.6841 56.8004 96.8121 56.9178 96.9827C57.0351 97.1427 57.1151 97.3347 57.1578 97.5587C57.2111 97.7827 57.2378 98.0281 57.2378 98.2947V103.719H58.5978V98.5667C58.5978 97.9267 58.7898 97.4147 59.1737 97.0307C59.5578 96.6467 60.0858 96.4547 60.7578 96.4547C61.0884 96.4547 61.3551 96.5027 61.5578 96.5987C61.7711 96.6947 61.9364 96.8281 62.0538 96.9987C62.1711 97.1587 62.2511 97.3507 62.2938 97.5747C62.3364 97.7987 62.3578 98.0387 62.3578 98.2947V103.719H63.7178V97.6547C63.7178 97.2281 63.6484 96.8654 63.5098 96.5667C63.3818 96.2574 63.1951 96.0067 62.9498 95.8147C62.7151 95.6227 62.4271 95.4841 62.0858 95.3987C61.7551 95.3027 61.3818 95.2547 60.9658 95.2547C60.4218 95.2547 59.9204 95.3774 59.4618 95.6227C59.0138 95.8681 58.6511 96.2147 58.3738 96.6627C58.2031 96.1507 57.9098 95.7881 57.4938 95.5747C57.0778 95.3614 56.6138 95.2547 56.1018 95.2547C54.9391 95.2547 54.0484 95.7241 53.4298 96.6627H53.3978V95.4467H52.1178ZM71.5024 98.7907H66.7504C66.7717 98.4707 66.841 98.1721 66.9584 97.8947C67.0757 97.6067 67.2357 97.3561 67.4384 97.1427C67.641 96.9294 67.881 96.7641 68.1584 96.6467C68.4464 96.5187 68.7664 96.4547 69.1184 96.4547C69.4597 96.4547 69.769 96.5187 70.0464 96.6467C70.3344 96.7641 70.5797 96.9294 70.7824 97.1427C70.9957 97.3454 71.161 97.5907 71.2784 97.8787C71.4064 98.1667 71.481 98.4707 71.5024 98.7907ZM72.8144 101.095H71.4704C71.353 101.639 71.1077 102.044 70.7344 102.311C70.3717 102.577 69.9024 102.711 69.3264 102.711C68.8784 102.711 68.489 102.636 68.1584 102.487C67.8277 102.337 67.5557 102.14 67.3424 101.895C67.129 101.639 66.9744 101.351 66.8784 101.031C66.7824 100.7 66.7397 100.353 66.7504 99.9907H72.9424C72.9637 99.4894 72.9157 98.9614 72.7984 98.4067C72.6917 97.8521 72.489 97.3401 72.1904 96.8707C71.9024 96.4014 71.513 96.0174 71.0224 95.7188C70.5424 95.4094 69.9344 95.2547 69.1984 95.2547C68.633 95.2547 68.1104 95.3614 67.6304 95.5747C67.161 95.7881 66.7504 96.0867 66.3984 96.4707C66.057 96.8547 65.7904 97.3081 65.5984 97.8307C65.4064 98.3534 65.3104 98.9294 65.3104 99.5587C65.3317 100.188 65.4224 100.769 65.5824 101.303C65.753 101.836 66.0037 102.295 66.3344 102.679C66.665 103.063 67.0704 103.361 67.5504 103.575C68.041 103.788 68.617 103.895 69.2784 103.895C70.217 103.895 70.9957 103.66 71.6144 103.191C72.233 102.721 72.633 102.023 72.8144 101.095ZM74.3521 95.4467V103.719H75.7121V99.0467C75.7121 98.6734 75.7601 98.3321 75.8561 98.0227C75.9628 97.7027 76.1175 97.4254 76.3201 97.1907C76.5228 96.9561 76.7735 96.7747 77.0721 96.6467C77.3815 96.5187 77.7441 96.4547 78.1601 96.4547C78.6828 96.4547 79.0935 96.6041 79.3921 96.9027C79.6908 97.2014 79.8401 97.6067 79.8401 98.1187V103.719H81.2001V98.2787C81.2001 97.8307 81.1521 97.4254 81.0561 97.0627C80.9708 96.6894 80.8161 96.3694 80.5921 96.1027C80.3681 95.8361 80.0748 95.6281 79.7121 95.4787C79.3495 95.3294 78.8961 95.2547 78.3521 95.2547C77.1255 95.2547 76.2295 95.7561 75.6641 96.7587H75.6321V95.4467H74.3521Z" fill="#111111"/>
<rect x="2.5" y="89.2188" width="19" height="19" rx="3.5" stroke="#CCCCCC"/>
<path d="M38.368 127.591V120.295H36.848V127.591C36.848 128.615 36.592 129.393 36.08 129.927C35.5787 130.449 34.8427 130.711 33.872 130.711C32.848 130.711 32.064 130.449 31.52 129.927C30.976 129.393 30.704 128.615 30.704 127.591V120.295H29.184V127.591C29.184 129.116 29.5947 130.231 30.416 130.935C31.248 131.628 32.4 131.975 33.872 131.975C35.312 131.975 36.4213 131.612 37.2 130.887C37.9787 130.151 38.368 129.052 38.368 127.591ZM40.5709 123.447V131.719H41.9309V127.047C41.9309 126.673 41.9789 126.332 42.0749 126.023C42.1815 125.703 42.3362 125.425 42.5389 125.191C42.7415 124.956 42.9922 124.775 43.2909 124.647C43.6002 124.519 43.9629 124.455 44.3789 124.455C44.9015 124.455 45.3122 124.604 45.6109 124.903C45.9095 125.201 46.0589 125.607 46.0589 126.119V131.719H47.4189V126.279C47.4189 125.831 47.3709 125.425 47.2749 125.063C47.1895 124.689 47.0349 124.369 46.8109 124.103C46.5869 123.836 46.2935 123.628 45.9309 123.479C45.5682 123.329 45.1149 123.255 44.5709 123.255C43.3442 123.255 42.4482 123.756 41.8829 124.759H41.8509V123.447H40.5709ZM50.9015 121.959V120.295H49.5415V121.959H50.9015ZM49.5415 123.447V131.719H50.9015V123.447H49.5415ZM53.8404 129.111H52.4804C52.5017 129.623 52.6084 130.06 52.8004 130.423C52.9924 130.775 53.2484 131.063 53.5684 131.287C53.8884 131.5 54.2564 131.655 54.6724 131.751C55.0884 131.847 55.5257 131.895 55.9844 131.895C56.4004 131.895 56.8164 131.852 57.2324 131.767C57.659 131.692 58.0377 131.553 58.3684 131.351C58.7097 131.148 58.9817 130.881 59.1844 130.551C59.3977 130.22 59.5044 129.804 59.5044 129.303C59.5044 128.908 59.4244 128.577 59.2644 128.311C59.115 128.044 58.9124 127.825 58.6564 127.655C58.411 127.473 58.123 127.329 57.7924 127.223C57.4724 127.116 57.1417 127.025 56.8004 126.951C56.4804 126.876 56.1604 126.807 55.8404 126.743C55.5204 126.668 55.2324 126.583 54.9764 126.487C54.7204 126.38 54.507 126.252 54.3364 126.103C54.1764 125.943 54.0964 125.745 54.0964 125.511C54.0964 125.297 54.1497 125.127 54.2564 124.999C54.363 124.86 54.5017 124.753 54.6724 124.679C54.843 124.593 55.0297 124.535 55.2324 124.503C55.4457 124.471 55.6537 124.455 55.8564 124.455C56.0804 124.455 56.299 124.481 56.5124 124.535C56.7364 124.577 56.939 124.652 57.1204 124.759C57.3017 124.865 57.451 125.009 57.5684 125.191C57.6857 125.361 57.755 125.58 57.7764 125.847H59.1364C59.1044 125.345 58.9977 124.929 58.8164 124.599C58.635 124.257 58.3897 123.991 58.0804 123.799C57.7817 123.596 57.435 123.457 57.0404 123.383C56.6457 123.297 56.2137 123.255 55.7444 123.255C55.3817 123.255 55.0137 123.303 54.6404 123.399C54.2777 123.484 53.947 123.623 53.6484 123.815C53.3604 123.996 53.1204 124.236 52.9284 124.535C52.747 124.833 52.6564 125.191 52.6564 125.607C52.6564 126.14 52.7897 126.556 53.0564 126.855C53.323 127.153 53.6537 127.388 54.0484 127.559C54.4537 127.719 54.891 127.847 55.3604 127.943C55.8297 128.028 56.2617 128.129 56.6564 128.247C57.0617 128.353 57.3977 128.497 57.6644 128.679C57.931 128.86 58.0644 129.127 58.0644 129.479C58.0644 129.735 58.0004 129.948 57.8724 130.119C57.7444 130.279 57.579 130.401 57.3764 130.487C57.1844 130.572 56.971 130.631 56.7364 130.663C56.5017 130.695 56.2777 130.711 56.0644 130.711C55.787 130.711 55.515 130.684 55.2484 130.631C54.9924 130.577 54.7577 130.492 54.5444 130.375C54.3417 130.247 54.1764 130.081 54.0484 129.879C53.9204 129.665 53.851 129.409 53.8404 129.111ZM66.7524 126.791H62.0004C62.0217 126.471 62.091 126.172 62.2084 125.895C62.3257 125.607 62.4857 125.356 62.6884 125.143C62.891 124.929 63.131 124.764 63.4084 124.647C63.6964 124.519 64.0164 124.455 64.3684 124.455C64.7097 124.455 65.019 124.519 65.2964 124.647C65.5844 124.764 65.8297 124.929 66.0324 125.143C66.2457 125.345 66.411 125.591 66.5284 125.879C66.6564 126.167 66.731 126.471 66.7524 126.791ZM68.0644 129.095H66.7204C66.603 129.639 66.3577 130.044 65.9844 130.311C65.6217 130.577 65.1524 130.711 64.5764 130.711C64.1284 130.711 63.739 130.636 63.4084 130.487C63.0777 130.337 62.8057 130.14 62.5924 129.895C62.379 129.639 62.2244 129.351 62.1284 129.031C62.0324 128.7 61.9897 128.353 62.0004 127.991H68.1924C68.2137 127.489 68.1657 126.961 68.0484 126.407C67.9417 125.852 67.739 125.34 67.4404 124.871C67.1524 124.401 66.763 124.017 66.2724 123.719C65.7924 123.409 65.1844 123.255 64.4484 123.255C63.883 123.255 63.3604 123.361 62.8804 123.575C62.411 123.788 62.0004 124.087 61.6484 124.471C61.307 124.855 61.0404 125.308 60.8484 125.831C60.6564 126.353 60.5604 126.929 60.5604 127.559C60.5817 128.188 60.6724 128.769 60.8324 129.303C61.003 129.836 61.2537 130.295 61.5844 130.679C61.915 131.063 62.3204 131.361 62.8004 131.575C63.291 131.788 63.867 131.895 64.5284 131.895C65.467 131.895 66.2457 131.66 66.8644 131.191C67.483 130.721 67.883 130.023 68.0644 129.095ZM71.8261 127.367L68.7221 131.719H70.3701L72.6741 128.295L74.9781 131.719H76.7221L73.5221 127.255L76.3701 123.447H74.7381L72.6741 126.343L70.6901 123.447H68.9461L71.8261 127.367Z" fill="#111111"/>
<rect x="2.5" y="117.219" width="19" height="19" rx="3.5" stroke="#CCCCCC"/>
</svg>
