<svg width="196" height="112" viewBox="0 0 196 112" fill="none" xmlns="http://www.w3.org/2000/svg">
<mask id="path-1-inside-1_1_404" fill="white">
<path d="M4 0.71875H196V238.719H4V0.71875Z"/>
</mask>
<path d="M196 237.719H4V239.719H196V237.719Z" fill="#E5E5E5" mask="url(#path-1-inside-1_1_404)"/>
<path d="M6.528 26.9107C6.528 27.3481 6.60267 27.7214 6.752 28.0307C6.90133 28.3401 7.10933 28.5961 7.376 28.7987C7.64267 28.9907 7.94667 29.1347 8.288 29.2307C8.64 29.3161 9.01867 29.3587 9.424 29.3587C9.86133 29.3587 10.2347 29.3107 10.544 29.2147C10.8533 29.1081 11.104 28.9747 11.296 28.8147C11.488 28.6547 11.6267 28.4734 11.712 28.2707C11.7973 28.0574 11.84 27.8441 11.84 27.6307C11.84 27.1934 11.7387 26.8734 11.536 26.6707C11.344 26.4574 11.1307 26.3081 10.896 26.2227C10.4907 26.0734 10.016 25.9347 9.472 25.8067C8.93867 25.6681 8.27733 25.4921 7.488 25.2787C6.99733 25.1507 6.58667 24.9854 6.256 24.7827C5.936 24.5694 5.68 24.3347 5.488 24.0787C5.296 23.8227 5.15733 23.5507 5.072 23.2627C4.99733 22.9747 4.96 22.6814 4.96 22.3827C4.96 21.8067 5.07733 21.3107 5.312 20.8947C5.55733 20.4681 5.87733 20.1161 6.272 19.8387C6.66667 19.5614 7.11467 19.3587 7.616 19.2307C8.11733 19.0921 8.624 19.0227 9.136 19.0227C9.73333 19.0227 10.2933 19.1027 10.816 19.2627C11.3493 19.4121 11.8133 19.6414 12.208 19.9507C12.6133 20.2601 12.9333 20.6441 13.168 21.1027C13.4027 21.5507 13.52 22.0734 13.52 22.6707H11.52C11.4667 21.9347 11.216 21.4174 10.768 21.1187C10.32 20.8094 9.74933 20.6547 9.056 20.6547C8.82133 20.6547 8.58133 20.6814 8.336 20.7347C8.09067 20.7774 7.86667 20.8574 7.664 20.9747C7.46133 21.0814 7.29067 21.2307 7.152 21.4227C7.024 21.6147 6.96 21.8547 6.96 22.1427C6.96 22.5481 7.08267 22.8681 7.328 23.1027C7.584 23.3267 7.91467 23.4974 8.32 23.6147C8.36267 23.6254 8.528 23.6734 8.816 23.7587C9.11467 23.8334 9.44533 23.9187 9.808 24.0147C10.1707 24.1107 10.5227 24.2067 10.864 24.3027C11.216 24.3881 11.4667 24.4521 11.616 24.4947C11.9893 24.6121 12.3147 24.7721 12.592 24.9747C12.8693 25.1774 13.0987 25.4121 13.28 25.6787C13.472 25.9347 13.6107 26.2121 13.696 26.5107C13.792 26.8094 13.84 27.1081 13.84 27.4067C13.84 28.0467 13.7067 28.5961 13.44 29.0547C13.184 29.5027 12.8427 29.8707 12.416 30.1587C11.9893 30.4467 11.504 30.6547 10.96 30.7828C10.416 30.9214 9.86133 30.9908 9.296 30.9908C8.64533 30.9908 8.032 30.9108 7.456 30.7508C6.88 30.5907 6.37867 30.3454 5.952 30.0147C5.52533 29.6841 5.184 29.2627 4.928 28.7507C4.672 28.2281 4.53867 27.6147 4.528 26.9107H6.528ZM15.335 19.2947H17.159V23.5347H17.191C17.415 23.1614 17.7457 22.8521 18.183 22.6067C18.631 22.3507 19.127 22.2227 19.671 22.2227C20.5777 22.2227 21.2923 22.4574 21.815 22.9267C22.3377 23.3961 22.599 24.1001 22.599 25.0387V30.7188H20.775V25.5187C20.7537 24.8681 20.615 24.3987 20.359 24.1107C20.103 23.8121 19.703 23.6627 19.159 23.6627C18.8497 23.6627 18.5723 23.7214 18.327 23.8387C18.0817 23.9454 17.8737 24.1001 17.703 24.3027C17.5323 24.4947 17.399 24.7241 17.303 24.9907C17.207 25.2574 17.159 25.5401 17.159 25.8387V30.7188H15.335V19.2947ZM28.3145 30.9428C27.6532 30.9428 27.0612 30.8361 26.5385 30.6227C26.0265 30.3987 25.5892 30.0947 25.2265 29.7107C24.8745 29.3267 24.6025 28.8681 24.4105 28.3347C24.2292 27.8014 24.1385 27.2147 24.1385 26.5747C24.1385 25.9454 24.2292 25.3641 24.4105 24.8307C24.6025 24.2974 24.8745 23.8387 25.2265 23.4547C25.5892 23.0707 26.0265 22.7721 26.5385 22.5587C27.0612 22.3347 27.6532 22.2227 28.3145 22.2227C28.9758 22.2227 29.5625 22.3347 30.0745 22.5587C30.5972 22.7721 31.0345 23.0707 31.3865 23.4547C31.7492 23.8387 32.0212 24.2974 32.2025 24.8307C32.3945 25.3641 32.4905 25.9454 32.4905 26.5747C32.4905 27.2147 32.3945 27.8014 32.2025 28.3347C32.0212 28.8681 31.7492 29.3267 31.3865 29.7107C31.0345 30.0947 30.5972 30.3987 30.0745 30.6227C29.5625 30.8361 28.9758 30.9428 28.3145 30.9428ZM28.3145 29.5027C28.7198 29.5027 29.0718 29.4174 29.3705 29.2467C29.6692 29.0761 29.9145 28.8521 30.1065 28.5747C30.2985 28.2974 30.4372 27.9881 30.5225 27.6467C30.6185 27.2947 30.6665 26.9374 30.6665 26.5747C30.6665 26.2227 30.6185 25.8707 30.5225 25.5187C30.4372 25.1667 30.2985 24.8574 30.1065 24.5907C29.9145 24.3134 29.6692 24.0894 29.3705 23.9187C29.0718 23.7481 28.7198 23.6627 28.3145 23.6627C27.9092 23.6627 27.5572 23.7481 27.2585 23.9187C26.9598 24.0894 26.7145 24.3134 26.5225 24.5907C26.3305 24.8574 26.1865 25.1667 26.0905 25.5187C26.0052 25.8707 25.9625 26.2227 25.9625 26.5747C25.9625 26.9374 26.0052 27.2947 26.0905 27.6467C26.1865 27.9881 26.3305 28.2974 26.5225 28.5747C26.7145 28.8521 26.9598 29.0761 27.2585 29.2467C27.5572 29.4174 27.9092 29.5027 28.3145 29.5027ZM34.0549 22.4467H35.7829V23.5667H35.8149C36.0709 23.0867 36.4282 22.7454 36.8869 22.5427C37.3455 22.3294 37.8415 22.2227 38.3749 22.2227C39.0255 22.2227 39.5909 22.3401 40.0709 22.5747C40.5615 22.7987 40.9669 23.1134 41.2869 23.5187C41.6069 23.9134 41.8469 24.3774 42.0069 24.9107C42.1669 25.4441 42.2469 26.0147 42.2469 26.6227C42.2469 27.1774 42.1722 27.7161 42.0229 28.2387C41.8842 28.7614 41.6655 29.2254 41.3669 29.6307C41.0789 30.0254 40.7109 30.3454 40.2629 30.5907C39.8149 30.8254 39.2869 30.9428 38.6789 30.9428C38.4122 30.9428 38.1455 30.9161 37.8789 30.8628C37.6122 30.8201 37.3562 30.7454 37.1109 30.6387C36.8655 30.5321 36.6362 30.3987 36.4229 30.2387C36.2202 30.0681 36.0495 29.8707 35.9109 29.6467H35.8789V33.7748H34.0549V22.4467ZM40.4229 26.5907C40.4229 26.2174 40.3749 25.8547 40.2789 25.5027C40.1829 25.1507 40.0389 24.8414 39.8469 24.5747C39.6549 24.2974 39.4149 24.0787 39.1269 23.9187C38.8389 23.7481 38.5082 23.6627 38.1349 23.6627C37.3669 23.6627 36.7855 23.9294 36.3909 24.4627C36.0069 24.9961 35.8149 25.7054 35.8149 26.5907C35.8149 27.0067 35.8629 27.3961 35.9589 27.7587C36.0655 28.1107 36.2202 28.4147 36.4229 28.6707C36.6255 28.9267 36.8655 29.1294 37.1429 29.2787C37.4309 29.4281 37.7615 29.5027 38.1349 29.5027C38.5509 29.5027 38.9029 29.4174 39.1909 29.2467C39.4789 29.0761 39.7135 28.8574 39.8949 28.5907C40.0869 28.3134 40.2202 28.0041 40.2949 27.6627C40.3802 27.3107 40.4229 26.9534 40.4229 26.5907ZM50.4973 24.0787H53.7613C54.2413 24.0787 54.6413 23.9454 54.9613 23.6787C55.2813 23.4014 55.4413 23.0067 55.4413 22.4948C55.4413 21.9187 55.2973 21.5134 55.0093 21.2787C54.7213 21.0441 54.3053 20.9267 53.7613 20.9267H50.4973V24.0787ZM48.4973 19.2947H54.0493C55.0733 19.2947 55.8946 19.5294 56.5133 19.9987C57.1319 20.4681 57.4413 21.1774 57.4413 22.1267C57.4413 22.7027 57.2973 23.1987 57.0093 23.6147C56.7319 24.0201 56.3319 24.3347 55.8093 24.5587V24.5907C56.5133 24.7401 57.0466 25.0761 57.4093 25.5987C57.7719 26.1107 57.9533 26.7561 57.9533 27.5347C57.9533 27.9827 57.8733 28.4041 57.7133 28.7987C57.5533 29.1827 57.3026 29.5187 56.9613 29.8067C56.6199 30.0841 56.1826 30.3081 55.6493 30.4787C55.1159 30.6387 54.4813 30.7188 53.7453 30.7188H48.4973V19.2947ZM50.4973 29.0867H54.0333C54.6413 29.0867 55.1106 28.9321 55.4413 28.6227C55.7826 28.3027 55.9533 27.8547 55.9533 27.2787C55.9533 26.7134 55.7826 26.2814 55.4413 25.9827C55.1106 25.6734 54.6413 25.5187 54.0333 25.5187H50.4973V29.0867ZM58.5949 22.4467H60.5949L62.7549 28.6227H62.7869L64.8829 22.4467H66.7869L63.5709 31.1668C63.4215 31.5401 63.2722 31.8974 63.1229 32.2388C62.9842 32.5801 62.8082 32.8788 62.5949 33.1348C62.3922 33.4014 62.1362 33.6094 61.8269 33.7588C61.5175 33.9188 61.1229 33.9988 60.6429 33.9988C60.2162 33.9988 59.7949 33.9668 59.3789 33.9028V32.3668C59.5282 32.3881 59.6722 32.4094 59.8109 32.4308C59.9495 32.4628 60.0935 32.4788 60.2429 32.4788C60.4562 32.4788 60.6322 32.4521 60.7709 32.3988C60.9095 32.3454 61.0215 32.2654 61.1069 32.1588C61.2029 32.0628 61.2829 31.9454 61.3469 31.8068C61.4109 31.6681 61.4695 31.5081 61.5229 31.3268L61.7309 30.6867L58.5949 22.4467ZM72.5129 19.2947H77.5529C78.3635 19.2947 79.0249 19.4121 79.5369 19.6467C80.0489 19.8814 80.4435 20.1747 80.7209 20.5267C80.9982 20.8787 81.1849 21.2627 81.2809 21.6788C81.3875 22.0947 81.4409 22.4787 81.4409 22.8307C81.4409 23.1827 81.3875 23.5667 81.2809 23.9827C81.1849 24.3881 80.9982 24.7667 80.7209 25.1187C80.4435 25.4707 80.0489 25.7641 79.5369 25.9987C79.0249 26.2227 78.3635 26.3347 77.5529 26.3347H74.5129V30.7188H72.5129V19.2947ZM74.5129 24.7027H77.4409C77.6649 24.7027 77.8942 24.6707 78.1289 24.6067C78.3635 24.5427 78.5769 24.4414 78.7689 24.3027C78.9715 24.1534 79.1315 23.9614 79.2489 23.7267C79.3769 23.4814 79.4409 23.1774 79.4409 22.8147C79.4409 22.4414 79.3875 22.1321 79.2809 21.8867C79.1742 21.6414 79.0302 21.4494 78.8489 21.3108C78.6675 21.1614 78.4595 21.0601 78.2249 21.0067C77.9902 20.9534 77.7395 20.9267 77.4729 20.9267H74.5129V24.7027ZM82.9288 22.4467H84.6408V24.0467H84.6728C84.7261 23.8227 84.8274 23.6041 84.9768 23.3907C85.1368 23.1774 85.3234 22.9854 85.5368 22.8147C85.7608 22.6334 86.0061 22.4894 86.2728 22.3827C86.5394 22.2761 86.8114 22.2227 87.0888 22.2227C87.3021 22.2227 87.4461 22.2281 87.5208 22.2387C87.6061 22.2494 87.6914 22.2601 87.7768 22.2708V24.0307C87.6488 24.0094 87.5154 23.9934 87.3768 23.9827C87.2488 23.9614 87.1208 23.9507 86.9928 23.9507C86.6834 23.9507 86.3901 24.0147 86.1128 24.1427C85.8461 24.2601 85.6114 24.4414 85.4088 24.6867C85.2061 24.9214 85.0461 25.2147 84.9288 25.5667C84.8114 25.9187 84.7528 26.3241 84.7528 26.7827V30.7188H82.9288V22.4467ZM88.6018 19.2947H90.4258V21.0227H88.6018V19.2947ZM88.6018 22.4467H90.4258V30.7188H88.6018V22.4467ZM97.9971 25.2147C97.9225 24.7027 97.7145 24.3187 97.3731 24.0627C97.0425 23.7961 96.6211 23.6627 96.1091 23.6627C95.8745 23.6627 95.6238 23.7054 95.3571 23.7907C95.0905 23.8654 94.8451 24.0147 94.6211 24.2387C94.3971 24.4521 94.2105 24.7561 94.0611 25.1507C93.9118 25.5347 93.8371 26.0414 93.8371 26.6707C93.8371 27.0121 93.8745 27.3534 93.9491 27.6947C94.0345 28.0361 94.1625 28.3401 94.3331 28.6068C94.5145 28.8734 94.7438 29.0921 95.0211 29.2627C95.2985 29.4227 95.6345 29.5027 96.0291 29.5027C96.5625 29.5027 96.9998 29.3374 97.3411 29.0067C97.6931 28.6761 97.9118 28.2121 97.9971 27.6147H99.8211C99.6505 28.6921 99.2398 29.5187 98.5891 30.0947C97.9491 30.6601 97.0958 30.9428 96.0291 30.9428C95.3785 30.9428 94.8025 30.8361 94.3011 30.6227C93.8105 30.3987 93.3945 30.1001 93.0531 29.7267C92.7118 29.3427 92.4505 28.8894 92.2691 28.3668C92.0985 27.8441 92.0131 27.2787 92.0131 26.6707C92.0131 26.0521 92.0985 25.4707 92.2691 24.9267C92.4398 24.3827 92.6958 23.9134 93.0371 23.5187C93.3785 23.1134 93.7998 22.7987 94.3011 22.5747C94.8131 22.3401 95.4105 22.2227 96.0931 22.2227C96.5731 22.2227 97.0265 22.2867 97.4531 22.4147C97.8905 22.5321 98.2745 22.7134 98.6051 22.9587C98.9465 23.2041 99.2238 23.5134 99.4371 23.8867C99.6505 24.2601 99.7785 24.7027 99.8211 25.2147H97.9971ZM106.984 25.8547C106.962 25.5667 106.898 25.2894 106.792 25.0227C106.696 24.7561 106.557 24.5267 106.376 24.3347C106.205 24.1321 105.992 23.9721 105.736 23.8547C105.49 23.7267 105.213 23.6627 104.904 23.6627C104.584 23.6627 104.29 23.7214 104.024 23.8387C103.768 23.9454 103.544 24.1001 103.352 24.3027C103.17 24.4947 103.021 24.7241 102.904 24.9907C102.797 25.2574 102.738 25.5454 102.728 25.8547H106.984ZM102.728 27.0547C102.728 27.3747 102.77 27.6841 102.856 27.9827C102.952 28.2814 103.09 28.5427 103.272 28.7667C103.453 28.9907 103.682 29.1721 103.96 29.3107C104.237 29.4387 104.568 29.5027 104.952 29.5027C105.485 29.5027 105.912 29.3907 106.232 29.1667C106.562 28.9321 106.808 28.5854 106.968 28.1267H108.696C108.6 28.5747 108.434 28.9747 108.2 29.3267C107.965 29.6787 107.682 29.9774 107.352 30.2227C107.021 30.4574 106.648 30.6334 106.232 30.7508C105.826 30.8788 105.4 30.9428 104.952 30.9428C104.301 30.9428 103.725 30.8361 103.224 30.6227C102.722 30.4094 102.296 30.1107 101.944 29.7267C101.602 29.3427 101.341 28.8841 101.16 28.3507C100.989 27.8174 100.904 27.2307 100.904 26.5907C100.904 26.0041 100.994 25.4494 101.176 24.9267C101.368 24.3934 101.634 23.9294 101.976 23.5347C102.328 23.1294 102.749 22.8094 103.24 22.5747C103.73 22.3401 104.285 22.2227 104.904 22.2227C105.554 22.2227 106.136 22.3614 106.648 22.6388C107.17 22.9054 107.602 23.2627 107.944 23.7107C108.285 24.1587 108.53 24.6761 108.68 25.2627C108.84 25.8387 108.882 26.4361 108.808 27.0547H102.728Z" fill="#111111"/>
<path d="M177.53 27.9554C177.133 27.5718 177.122 26.9387 177.505 26.5414L183.062 20.7867L184.501 22.176L178.944 27.9307C178.56 28.328 177.927 28.3391 177.53 27.9554Z" fill="black"/>
<path d="M183.25 20.7871L188.807 26.5418C189.191 26.9391 189.18 27.5722 188.783 27.9558C188.385 28.3395 187.752 28.3284 187.369 27.9312L181.811 22.1764L183.25 20.7871Z" fill="black"/>
<path d="M37.72 70.8487V64.0087H36.295V70.8487C36.295 71.8087 36.055 72.5387 35.575 73.0387C35.105 73.5287 34.415 73.7737 33.505 73.7737C32.545 73.7737 31.81 73.5287 31.3 73.0387C30.79 72.5387 30.535 71.8087 30.535 70.8487V64.0087H29.11V70.8487C29.11 72.2787 29.495 73.3237 30.265 73.9837C31.045 74.6337 32.125 74.9588 33.505 74.9588C34.855 74.9588 35.895 74.6188 36.625 73.9387C37.355 73.2487 37.72 72.2187 37.72 70.8487ZM39.7852 66.9637V74.7188H41.0602V70.3387C41.0602 69.9887 41.1052 69.6687 41.1952 69.3787C41.2952 69.0787 41.4402 68.8187 41.6302 68.5987C41.8202 68.3787 42.0552 68.2087 42.3352 68.0887C42.6252 67.9687 42.9652 67.9087 43.3552 67.9087C43.8452 67.9087 44.2302 68.0487 44.5102 68.3287C44.7902 68.6087 44.9302 68.9887 44.9302 69.4687V74.7188H46.2052V69.6187C46.2052 69.1987 46.1602 68.8187 46.0702 68.4787C45.9902 68.1287 45.8452 67.8287 45.6352 67.5787C45.4252 67.3287 45.1502 67.1337 44.8102 66.9937C44.4702 66.8537 44.0452 66.7837 43.5352 66.7837C42.3852 66.7837 41.5452 67.2537 41.0152 68.1937H40.9852V66.9637H39.7852ZM49.0502 70.9087C49.0502 70.5287 49.0902 70.1587 49.1702 69.7987C49.2502 69.4387 49.3802 69.1187 49.5602 68.8387C49.7402 68.5587 49.9802 68.3337 50.2802 68.1637C50.5802 67.9937 50.9452 67.9087 51.3752 67.9087C51.8152 67.9087 52.1902 67.9937 52.5002 68.1637C52.8102 68.3237 53.0602 68.5387 53.2502 68.8087C53.4502 69.0787 53.5952 69.3937 53.6852 69.7537C53.7752 70.1037 53.8202 70.4687 53.8202 70.8487C53.8202 71.2087 53.7752 71.5637 53.6852 71.9137C53.6052 72.2637 53.4702 72.5787 53.2802 72.8587C53.0902 73.1287 52.8452 73.3487 52.5452 73.5187C52.2452 73.6887 51.8802 73.7737 51.4502 73.7737C51.0402 73.7737 50.6802 73.6937 50.3702 73.5337C50.0702 73.3737 49.8202 73.1587 49.6202 72.8887C49.4302 72.6187 49.2852 72.3137 49.1852 71.9737C49.0952 71.6237 49.0502 71.2687 49.0502 70.9087ZM55.0502 74.7188V64.0087H53.7752V67.9987H53.7452C53.6052 67.7687 53.4302 67.5787 53.2202 67.4287C53.0202 67.2687 52.8052 67.1437 52.5752 67.0537C52.3452 66.9537 52.1152 66.8837 51.8852 66.8437C51.6552 66.8037 51.4402 66.7837 51.2402 66.7837C50.6502 66.7837 50.1302 66.8937 49.6802 67.1137C49.2402 67.3237 48.8702 67.6137 48.5702 67.9837C48.2802 68.3437 48.0602 68.7687 47.9102 69.2587C47.7702 69.7487 47.7002 70.2687 47.7002 70.8187C47.7002 71.3687 47.7752 71.8887 47.9252 72.3787C48.0752 72.8687 48.2952 73.2987 48.5852 73.6687C48.8852 74.0388 49.2552 74.3337 49.6952 74.5537C50.1452 74.7738 50.6702 74.8838 51.2702 74.8838C51.8102 74.8838 52.3052 74.7888 52.7552 74.5987C53.2052 74.4087 53.5352 74.0987 53.7452 73.6687H53.7752V74.7188H55.0502ZM62.3968 70.0987H57.9418C57.9618 69.7987 58.0268 69.5187 58.1368 69.2587C58.2468 68.9887 58.3968 68.7537 58.5868 68.5537C58.7768 68.3537 59.0018 68.1987 59.2618 68.0887C59.5318 67.9687 59.8318 67.9087 60.1618 67.9087C60.4818 67.9087 60.7718 67.9687 61.0318 68.0887C61.3018 68.1987 61.5318 68.3537 61.7218 68.5537C61.9218 68.7437 62.0768 68.9737 62.1868 69.2437C62.3068 69.5137 62.3768 69.7987 62.3968 70.0987ZM63.6268 72.2587H62.3668C62.2568 72.7687 62.0268 73.1487 61.6768 73.3987C61.3368 73.6487 60.8968 73.7737 60.3568 73.7737C59.9368 73.7737 59.5718 73.7037 59.2618 73.5637C58.9518 73.4237 58.6968 73.2387 58.4968 73.0087C58.2968 72.7687 58.1518 72.4987 58.0618 72.1987C57.9718 71.8887 57.9318 71.5637 57.9418 71.2237H63.7468C63.7668 70.7537 63.7218 70.2587 63.6118 69.7387C63.5118 69.2187 63.3218 68.7387 63.0418 68.2987C62.7718 67.8587 62.4068 67.4987 61.9468 67.2188C61.4968 66.9287 60.9268 66.7837 60.2368 66.7837C59.7068 66.7837 59.2168 66.8837 58.7668 67.0837C58.3268 67.2837 57.9418 67.5637 57.6118 67.9237C57.2918 68.2837 57.0418 68.7087 56.8618 69.1987C56.6818 69.6887 56.5918 70.2287 56.5918 70.8187C56.6118 71.4087 56.6968 71.9537 56.8468 72.4537C57.0068 72.9537 57.2418 73.3837 57.5518 73.7437C57.8618 74.1037 58.2418 74.3837 58.6918 74.5837C59.1518 74.7838 59.6918 74.8838 60.3118 74.8838C61.1918 74.8838 61.9218 74.6638 62.5018 74.2238C63.0818 73.7837 63.4568 73.1287 63.6268 72.2587ZM65.0234 66.9637V74.7188H66.2984V71.2687C66.2984 70.7687 66.3484 70.3287 66.4484 69.9487C66.5484 69.5587 66.7084 69.2287 66.9284 68.9587C67.1484 68.6887 67.4384 68.4837 67.7984 68.3437C68.1584 68.2037 68.5934 68.1337 69.1034 68.1337V66.7837C68.4134 66.7637 67.8434 66.9037 67.3934 67.2037C66.9434 67.5037 66.5634 67.9687 66.2534 68.5987H66.2234V66.9637H65.0234ZM78.7083 67.4287C78.6683 67.7787 78.5733 68.0937 78.4233 68.3737C78.2833 68.6537 78.1033 68.9037 77.8833 69.1237C77.6633 69.3337 77.4133 69.5137 77.1333 69.6637C76.8533 69.8037 76.5633 69.9137 76.2633 69.9937L79.8483 74.7188H78.1383L75.4833 71.1937C75.1933 70.8037 74.9283 70.5237 74.6883 70.3537C74.4583 70.1737 74.2133 70.0837 73.9533 70.0837V68.9887H74.8383C75.1483 68.9887 75.4433 68.9687 75.7233 68.9287C76.0133 68.8787 76.2733 68.7987 76.5033 68.6887C76.7333 68.5687 76.9233 68.4087 77.0733 68.2087C77.2333 68.0087 77.3283 67.7487 77.3583 67.4287H73.6833L74.1333 66.5437H77.2983C77.2083 66.1337 77.0133 65.8037 76.7133 65.5537C76.4133 65.3037 76.0083 65.1687 75.4983 65.1487H73.6833L74.1333 64.2637H80.7183L80.2683 65.1487H78.0783C78.4183 65.5287 78.6233 65.9937 78.6933 66.5437H80.7183L80.2683 67.4287H78.7083ZM85.9061 67.8487H87.1811C87.1711 67.5287 87.2011 67.2137 87.2711 66.9037C87.3511 66.5837 87.4761 66.2987 87.6461 66.0487C87.8161 65.7987 88.0311 65.5987 88.2911 65.4487C88.5611 65.2887 88.8811 65.2087 89.2511 65.2087C89.5311 65.2087 89.7961 65.2537 90.0461 65.3438C90.2961 65.4337 90.5111 65.5637 90.6911 65.7337C90.8811 65.9037 91.0311 66.1087 91.1411 66.3487C91.2511 66.5787 91.3061 66.8387 91.3061 67.1287C91.3061 67.4987 91.2461 67.8237 91.1261 68.1037C91.0161 68.3837 90.8461 68.6437 90.6161 68.8837C90.3961 69.1237 90.1161 69.3637 89.7761 69.6037C89.4361 69.8337 89.0411 70.0887 88.5911 70.3687C88.2211 70.5887 87.8661 70.8237 87.5261 71.0737C87.1861 71.3237 86.8811 71.6137 86.6111 71.9437C86.3411 72.2737 86.1161 72.6637 85.9361 73.1137C85.7661 73.5537 85.6561 74.0887 85.6061 74.7188H92.5511V73.5937H87.0911C87.1511 73.2637 87.2761 72.9737 87.4661 72.7237C87.6661 72.4637 87.9011 72.2237 88.1711 72.0037C88.4511 71.7837 88.7561 71.5787 89.0861 71.3887C89.4161 71.1887 89.7461 70.9887 90.0761 70.7887C90.4061 70.5787 90.7261 70.3587 91.0361 70.1287C91.3461 69.8987 91.6211 69.6437 91.8611 69.3637C92.1011 69.0737 92.2911 68.7487 92.4311 68.3887C92.5811 68.0287 92.6561 67.6137 92.6561 67.1438C92.6561 66.6437 92.5661 66.2037 92.3861 65.8237C92.2161 65.4437 91.9811 65.1287 91.6811 64.8787C91.3811 64.6187 91.0261 64.4237 90.6161 64.2937C90.2161 64.1537 89.7861 64.0837 89.3261 64.0837C88.7661 64.0837 88.2661 64.1787 87.8261 64.3687C87.3861 64.5587 87.0161 64.8237 86.7161 65.1637C86.4261 65.4937 86.2111 65.8887 86.0711 66.3487C85.9311 66.8087 85.8761 67.3087 85.9061 67.8487ZM104.806 65.3887V64.2637H99.5559L98.5659 69.7837L99.6609 69.8437C99.9109 69.5437 100.196 69.3037 100.516 69.1237C100.846 68.9337 101.221 68.8387 101.641 68.8387C102.001 68.8387 102.326 68.8987 102.616 69.0187C102.916 69.1387 103.171 69.3087 103.381 69.5287C103.591 69.7387 103.751 69.9937 103.861 70.2937C103.981 70.5837 104.041 70.9037 104.041 71.2537C104.041 71.6737 103.981 72.0437 103.861 72.3637C103.741 72.6737 103.576 72.9337 103.366 73.1437C103.166 73.3537 102.926 73.5137 102.646 73.6237C102.376 73.7237 102.091 73.7737 101.791 73.7737C101.471 73.7737 101.176 73.7287 100.906 73.6387C100.646 73.5387 100.416 73.4037 100.216 73.2337C100.026 73.0537 99.8709 72.8487 99.7509 72.6187C99.6409 72.3787 99.5759 72.1237 99.5559 71.8537H98.2809C98.2909 72.3337 98.3859 72.7637 98.5659 73.1437C98.7459 73.5237 98.9909 73.8437 99.3009 74.1037C99.6109 74.3537 99.9659 74.5487 100.366 74.6887C100.776 74.8188 101.211 74.8838 101.671 74.8838C102.291 74.8838 102.831 74.7888 103.291 74.5987C103.761 74.3987 104.151 74.1337 104.461 73.8037C104.771 73.4737 105.001 73.0987 105.151 72.6787C105.311 72.2487 105.391 71.8087 105.391 71.3587C105.391 70.7487 105.301 70.2187 105.121 69.7687C104.941 69.3087 104.696 68.9287 104.386 68.6287C104.076 68.3187 103.711 68.0887 103.291 67.9387C102.871 67.7887 102.426 67.7137 101.956 67.7137C101.596 67.7137 101.231 67.7787 100.861 67.9087C100.501 68.0287 100.206 68.2187 99.9759 68.4787L99.9459 68.4487L100.516 65.3887H104.806ZM108.071 69.4837C108.071 69.2237 108.071 68.9387 108.071 68.6287C108.081 68.3087 108.106 67.9937 108.146 67.6837C108.196 67.3637 108.261 67.0537 108.341 66.7537C108.431 66.4537 108.556 66.1937 108.716 65.9737C108.886 65.7437 109.096 65.5587 109.346 65.4187C109.596 65.2787 109.901 65.2087 110.261 65.2087C110.621 65.2087 110.926 65.2787 111.176 65.4187C111.426 65.5587 111.631 65.7437 111.791 65.9737C111.961 66.1937 112.086 66.4537 112.166 66.7537C112.256 67.0537 112.321 67.3637 112.361 67.6837C112.411 67.9937 112.436 68.3087 112.436 68.6287C112.446 68.9387 112.451 69.2237 112.451 69.4837C112.451 69.8837 112.436 70.3337 112.406 70.8337C112.386 71.3237 112.306 71.7887 112.166 72.2287C112.036 72.6587 111.821 73.0237 111.521 73.3237C111.221 73.6237 110.801 73.7737 110.261 73.7737C109.721 73.7737 109.301 73.6237 109.001 73.3237C108.701 73.0237 108.481 72.6587 108.341 72.2287C108.211 71.7887 108.131 71.3237 108.101 70.8337C108.081 70.3337 108.071 69.8837 108.071 69.4837ZM106.721 69.4987C106.721 69.8887 106.731 70.2937 106.751 70.7137C106.771 71.1337 106.821 71.5437 106.901 71.9437C106.981 72.3437 107.096 72.7237 107.246 73.0837C107.396 73.4337 107.601 73.7437 107.861 74.0137C108.121 74.2837 108.446 74.4987 108.836 74.6587C109.236 74.8088 109.711 74.8838 110.261 74.8838C110.821 74.8838 111.296 74.8088 111.686 74.6587C112.076 74.4987 112.401 74.2837 112.661 74.0137C112.921 73.7437 113.126 73.4337 113.276 73.0837C113.426 72.7237 113.541 72.3437 113.621 71.9437C113.701 71.5437 113.751 71.1337 113.771 70.7137C113.791 70.2937 113.801 69.8887 113.801 69.4987C113.801 69.1087 113.791 68.7037 113.771 68.2837C113.751 67.8637 113.701 67.4537 113.621 67.0537C113.541 66.6537 113.426 66.2737 113.276 65.9137C113.126 65.5537 112.921 65.2387 112.661 64.9687C112.401 64.6987 112.071 64.4837 111.671 64.3237C111.281 64.1637 110.811 64.0837 110.261 64.0837C109.711 64.0837 109.236 64.1637 108.836 64.3237C108.446 64.4837 108.121 64.6987 107.861 64.9687C107.601 65.2387 107.396 65.5537 107.246 65.9137C107.096 66.2737 106.981 66.6537 106.901 67.0537C106.821 67.4537 106.771 67.8637 106.751 68.2837C106.731 68.7037 106.721 69.1087 106.721 69.4987ZM116.406 69.4837C116.406 69.2237 116.406 68.9387 116.406 68.6287C116.416 68.3087 116.441 67.9937 116.481 67.6837C116.531 67.3637 116.596 67.0537 116.676 66.7537C116.766 66.4537 116.891 66.1937 117.051 65.9737C117.221 65.7437 117.431 65.5587 117.681 65.4187C117.931 65.2787 118.236 65.2087 118.596 65.2087C118.956 65.2087 119.261 65.2787 119.511 65.4187C119.761 65.5587 119.966 65.7437 120.126 65.9737C120.296 66.1937 120.421 66.4537 120.501 66.7537C120.591 67.0537 120.656 67.3637 120.696 67.6837C120.746 67.9937 120.771 68.3087 120.771 68.6287C120.781 68.9387 120.786 69.2237 120.786 69.4837C120.786 69.8837 120.771 70.3337 120.741 70.8337C120.721 71.3237 120.641 71.7887 120.501 72.2287C120.371 72.6587 120.156 73.0237 119.856 73.3237C119.556 73.6237 119.136 73.7737 118.596 73.7737C118.056 73.7737 117.636 73.6237 117.336 73.3237C117.036 73.0237 116.816 72.6587 116.676 72.2287C116.546 71.7887 116.466 71.3237 116.436 70.8337C116.416 70.3337 116.406 69.8837 116.406 69.4837ZM115.056 69.4987C115.056 69.8887 115.066 70.2937 115.086 70.7137C115.106 71.1337 115.156 71.5437 115.236 71.9437C115.316 72.3437 115.431 72.7237 115.581 73.0837C115.731 73.4337 115.936 73.7437 116.196 74.0137C116.456 74.2837 116.781 74.4987 117.171 74.6587C117.571 74.8088 118.046 74.8838 118.596 74.8838C119.156 74.8838 119.631 74.8088 120.021 74.6587C120.411 74.4987 120.736 74.2837 120.996 74.0137C121.256 73.7437 121.461 73.4337 121.611 73.0837C121.761 72.7237 121.876 72.3437 121.956 71.9437C122.036 71.5437 122.086 71.1337 122.106 70.7137C122.126 70.2937 122.136 69.8887 122.136 69.4987C122.136 69.1087 122.126 68.7037 122.106 68.2837C122.086 67.8637 122.036 67.4537 121.956 67.0537C121.876 66.6537 121.761 66.2737 121.611 65.9137C121.461 65.5537 121.256 65.2387 120.996 64.9687C120.736 64.6987 120.406 64.4837 120.006 64.3237C119.616 64.1637 119.146 64.0837 118.596 64.0837C118.046 64.0837 117.571 64.1637 117.171 64.3237C116.781 64.4837 116.456 64.6987 116.196 64.9687C115.936 65.2387 115.731 65.5537 115.581 65.9137C115.431 66.2737 115.316 66.6537 115.236 67.0537C115.156 67.4537 115.106 67.8637 115.086 68.2837C115.066 68.7037 115.056 69.1087 115.056 69.4987ZM124.006 73.0537V74.7188H125.671V73.0537H124.006ZM128.916 69.4837C128.916 69.2237 128.916 68.9387 128.916 68.6287C128.926 68.3087 128.951 67.9937 128.991 67.6837C129.041 67.3637 129.106 67.0537 129.186 66.7537C129.276 66.4537 129.401 66.1937 129.561 65.9737C129.731 65.7437 129.941 65.5587 130.191 65.4187C130.441 65.2787 130.746 65.2087 131.106 65.2087C131.466 65.2087 131.771 65.2787 132.021 65.4187C132.271 65.5587 132.476 65.7437 132.636 65.9737C132.806 66.1937 132.931 66.4537 133.011 66.7537C133.101 67.0537 133.166 67.3637 133.206 67.6837C133.256 67.9937 133.281 68.3087 133.281 68.6287C133.291 68.9387 133.296 69.2237 133.296 69.4837C133.296 69.8837 133.281 70.3337 133.251 70.8337C133.231 71.3237 133.151 71.7887 133.011 72.2287C132.881 72.6587 132.666 73.0237 132.366 73.3237C132.066 73.6237 131.646 73.7737 131.106 73.7737C130.566 73.7737 130.146 73.6237 129.846 73.3237C129.546 73.0237 129.326 72.6587 129.186 72.2287C129.056 71.7887 128.976 71.3237 128.946 70.8337C128.926 70.3337 128.916 69.8837 128.916 69.4837ZM127.566 69.4987C127.566 69.8887 127.576 70.2937 127.596 70.7137C127.616 71.1337 127.666 71.5437 127.746 71.9437C127.826 72.3437 127.941 72.7237 128.091 73.0837C128.241 73.4337 128.446 73.7437 128.706 74.0137C128.966 74.2837 129.291 74.4987 129.681 74.6587C130.081 74.8088 130.556 74.8838 131.106 74.8838C131.666 74.8838 132.141 74.8088 132.531 74.6587C132.921 74.4987 133.246 74.2837 133.506 74.0137C133.766 73.7437 133.971 73.4337 134.121 73.0837C134.271 72.7237 134.386 72.3437 134.466 71.9437C134.546 71.5437 134.596 71.1337 134.616 70.7137C134.636 70.2937 134.646 69.8887 134.646 69.4987C134.646 69.1087 134.636 68.7037 134.616 68.2837C134.596 67.8637 134.546 67.4537 134.466 67.0537C134.386 66.6537 134.271 66.2737 134.121 65.9137C133.971 65.5537 133.766 65.2387 133.506 64.9687C133.246 64.6987 132.916 64.4837 132.516 64.3237C132.126 64.1637 131.656 64.0837 131.106 64.0837C130.556 64.0837 130.081 64.1637 129.681 64.3237C129.291 64.4837 128.966 64.6987 128.706 64.9687C128.446 65.2387 128.241 65.5537 128.091 65.9137C127.941 66.2737 127.826 66.6537 127.746 67.0537C127.666 67.4537 127.616 67.8637 127.596 68.2837C127.576 68.7037 127.566 69.1087 127.566 69.4987ZM137.251 69.4837C137.251 69.2237 137.251 68.9387 137.251 68.6287C137.261 68.3087 137.286 67.9937 137.326 67.6837C137.376 67.3637 137.441 67.0537 137.521 66.7537C137.611 66.4537 137.736 66.1937 137.896 65.9737C138.066 65.7437 138.276 65.5587 138.526 65.4187C138.776 65.2787 139.081 65.2087 139.441 65.2087C139.801 65.2087 140.106 65.2787 140.356 65.4187C140.606 65.5587 140.811 65.7437 140.971 65.9737C141.141 66.1937 141.266 66.4537 141.346 66.7537C141.436 67.0537 141.501 67.3637 141.541 67.6837C141.591 67.9937 141.616 68.3087 141.616 68.6287C141.626 68.9387 141.631 69.2237 141.631 69.4837C141.631 69.8837 141.616 70.3337 141.586 70.8337C141.566 71.3237 141.486 71.7887 141.346 72.2287C141.216 72.6587 141.001 73.0237 140.701 73.3237C140.401 73.6237 139.981 73.7737 139.441 73.7737C138.901 73.7737 138.481 73.6237 138.181 73.3237C137.881 73.0237 137.661 72.6587 137.521 72.2287C137.391 71.7887 137.311 71.3237 137.281 70.8337C137.261 70.3337 137.251 69.8837 137.251 69.4837ZM135.901 69.4987C135.901 69.8887 135.911 70.2937 135.931 70.7137C135.951 71.1337 136.001 71.5437 136.081 71.9437C136.161 72.3437 136.276 72.7237 136.426 73.0837C136.576 73.4337 136.781 73.7437 137.041 74.0137C137.301 74.2837 137.626 74.4987 138.016 74.6587C138.416 74.8088 138.891 74.8838 139.441 74.8838C140.001 74.8838 140.476 74.8088 140.866 74.6587C141.256 74.4987 141.581 74.2837 141.841 74.0137C142.101 73.7437 142.306 73.4337 142.456 73.0837C142.606 72.7237 142.721 72.3437 142.801 71.9437C142.881 71.5437 142.931 71.1337 142.951 70.7137C142.971 70.2937 142.981 69.8887 142.981 69.4987C142.981 69.1087 142.971 68.7037 142.951 68.2837C142.931 67.8637 142.881 67.4537 142.801 67.0537C142.721 66.6537 142.606 66.2737 142.456 65.9137C142.306 65.5537 142.101 65.2387 141.841 64.9687C141.581 64.6987 141.251 64.4837 140.851 64.3237C140.461 64.1637 139.991 64.0837 139.441 64.0837C138.891 64.0837 138.416 64.1637 138.016 64.3237C137.626 64.4837 137.301 64.6987 137.041 64.9687C136.781 65.2387 136.576 65.5537 136.426 65.9137C136.276 66.2737 136.161 66.6537 136.081 67.0537C136.001 67.4537 135.951 67.8637 135.931 68.2837C135.911 68.7037 135.901 69.1087 135.901 69.4987Z" fill="#111111"/>
<rect x="2.5" y="60.2188" width="19" height="19" rx="3.5" stroke="#CCCCCC"/>
<path d="M33.792 94.9427C33.7493 95.3161 33.648 95.6521 33.488 95.9507C33.3387 96.2494 33.1467 96.5161 32.912 96.7507C32.6773 96.9747 32.4107 97.1667 32.112 97.3267C31.8133 97.4761 31.504 97.5934 31.184 97.6787L35.008 102.719H33.184L30.352 98.9587C30.0427 98.5427 29.76 98.2441 29.504 98.0627C29.2587 97.8707 28.9973 97.7747 28.72 97.7747V96.6067H29.664C29.9947 96.6067 30.3093 96.5854 30.608 96.5427C30.9173 96.4894 31.1947 96.4041 31.44 96.2867C31.6853 96.1587 31.888 95.9881 32.048 95.7747C32.2187 95.5614 32.32 95.2841 32.352 94.9427H28.432L28.912 93.9987H32.288C32.192 93.5614 31.984 93.2094 31.664 92.9427C31.344 92.6761 30.912 92.5321 30.368 92.5107H28.432L28.912 91.5667H35.936L35.456 92.5107H33.12C33.4827 92.9161 33.7013 93.4121 33.776 93.9987H35.936L35.456 94.9427H33.792ZM41.4696 95.3907H42.8296C42.819 95.0494 42.851 94.7134 42.9256 94.3827C43.011 94.0414 43.1443 93.7374 43.3256 93.4707C43.507 93.2041 43.7363 92.9907 44.0136 92.8307C44.3016 92.6601 44.643 92.5747 45.0376 92.5747C45.3363 92.5747 45.619 92.6227 45.8856 92.7188C46.1523 92.8147 46.3816 92.9534 46.5736 93.1347C46.7763 93.3161 46.9363 93.5347 47.0536 93.7907C47.171 94.0361 47.2296 94.3134 47.2296 94.6227C47.2296 95.0174 47.1656 95.3641 47.0376 95.6627C46.9203 95.9614 46.739 96.2387 46.4936 96.4947C46.259 96.7507 45.9603 97.0067 45.5976 97.2627C45.235 97.5081 44.8136 97.7801 44.3336 98.0787C43.939 98.3134 43.5603 98.5641 43.1976 98.8307C42.835 99.0974 42.5096 99.4067 42.2216 99.7587C41.9336 100.111 41.6936 100.527 41.5016 101.007C41.3203 101.476 41.203 102.047 41.1496 102.719H48.5576V101.519H42.7336C42.7976 101.167 42.931 100.857 43.1336 100.591C43.347 100.313 43.5976 100.057 43.8856 99.8227C44.1843 99.5881 44.5096 99.3694 44.8616 99.1667C45.2136 98.9534 45.5656 98.7401 45.9176 98.5267C46.2696 98.3027 46.611 98.0681 46.9416 97.8227C47.2723 97.5774 47.5656 97.3054 47.8216 97.0067C48.0776 96.6974 48.2803 96.3507 48.4296 95.9667C48.5896 95.5827 48.6696 95.1401 48.6696 94.6388C48.6696 94.1054 48.5736 93.6361 48.3816 93.2307C48.2003 92.8254 47.9496 92.4894 47.6296 92.2227C47.3096 91.9454 46.931 91.7374 46.4936 91.5987C46.067 91.4494 45.6083 91.3747 45.1176 91.3747C44.5203 91.3747 43.987 91.4761 43.5176 91.6787C43.0483 91.8814 42.6536 92.1641 42.3336 92.5267C42.0243 92.8787 41.795 93.3001 41.6456 93.7907C41.4963 94.2814 41.4376 94.8147 41.4696 95.3907ZM61.6294 92.7667V91.5667H56.0294L54.9734 97.4547L56.1414 97.5187C56.408 97.1987 56.712 96.9427 57.0534 96.7507C57.4054 96.5481 57.8054 96.4467 58.2534 96.4467C58.6374 96.4467 58.984 96.5107 59.2934 96.6387C59.6134 96.7667 59.8854 96.9481 60.1094 97.1827C60.3334 97.4067 60.504 97.6787 60.6214 97.9987C60.7494 98.3081 60.8134 98.6494 60.8134 99.0227C60.8134 99.4707 60.7494 99.8654 60.6214 100.207C60.4934 100.537 60.3174 100.815 60.0934 101.039C59.88 101.263 59.624 101.433 59.3254 101.551C59.0374 101.657 58.7334 101.711 58.4134 101.711C58.072 101.711 57.7574 101.663 57.4694 101.567C57.192 101.46 56.9467 101.316 56.7334 101.135C56.5307 100.943 56.3654 100.724 56.2374 100.479C56.12 100.223 56.0507 99.9507 56.0294 99.6627H54.6694C54.68 100.175 54.7814 100.633 54.9734 101.039C55.1654 101.444 55.4267 101.785 55.7574 102.063C56.088 102.329 56.4667 102.537 56.8934 102.687C57.3307 102.825 57.7947 102.895 58.2854 102.895C58.9467 102.895 59.5227 102.793 60.0134 102.591C60.5147 102.377 60.9307 102.095 61.2614 101.743C61.592 101.391 61.8374 100.991 61.9974 100.543C62.168 100.084 62.2534 99.6147 62.2534 99.1347C62.2534 98.4841 62.1574 97.9187 61.9654 97.4387C61.7734 96.9481 61.512 96.5427 61.1814 96.2227C60.8507 95.8921 60.4614 95.6467 60.0134 95.4867C59.5654 95.3267 59.0907 95.2467 58.5894 95.2467C58.2054 95.2467 57.816 95.3161 57.4214 95.4547C57.0374 95.5827 56.7227 95.7854 56.4774 96.0627L56.4454 96.0307L57.0534 92.7667H61.6294ZM65.112 97.1347C65.112 96.8574 65.112 96.5534 65.112 96.2227C65.1227 95.8814 65.1493 95.5454 65.192 95.2147C65.2453 94.8734 65.3147 94.5427 65.4 94.2227C65.496 93.9027 65.6293 93.6254 65.8 93.3907C65.9813 93.1454 66.2053 92.9481 66.472 92.7987C66.7387 92.6494 67.064 92.5747 67.448 92.5747C67.832 92.5747 68.1573 92.6494 68.424 92.7987C68.6907 92.9481 68.9093 93.1454 69.08 93.3907C69.2613 93.6254 69.3947 93.9027 69.48 94.2227C69.576 94.5427 69.6453 94.8734 69.688 95.2147C69.7413 95.5454 69.768 95.8814 69.768 96.2227C69.7787 96.5534 69.784 96.8574 69.784 97.1347C69.784 97.5614 69.768 98.0414 69.736 98.5747C69.7147 99.0974 69.6293 99.5934 69.48 100.063C69.3413 100.521 69.112 100.911 68.792 101.231C68.472 101.551 68.024 101.711 67.448 101.711C66.872 101.711 66.424 101.551 66.104 101.231C65.784 100.911 65.5493 100.521 65.4 100.063C65.2613 99.5934 65.176 99.0974 65.144 98.5747C65.1227 98.0414 65.112 97.5614 65.112 97.1347ZM63.672 97.1507C63.672 97.5667 63.6827 97.9987 63.704 98.4467C63.7253 98.8947 63.7787 99.3321 63.864 99.7587C63.9493 100.185 64.072 100.591 64.232 100.975C64.392 101.348 64.6107 101.679 64.888 101.967C65.1653 102.255 65.512 102.484 65.928 102.655C66.3547 102.815 66.8613 102.895 67.448 102.895C68.0453 102.895 68.552 102.815 68.968 102.655C69.384 102.484 69.7307 102.255 70.008 101.967C70.2853 101.679 70.504 101.348 70.664 100.975C70.824 100.591 70.9467 100.185 71.032 99.7587C71.1173 99.3321 71.1707 98.8947 71.192 98.4467C71.2133 97.9987 71.224 97.5667 71.224 97.1507C71.224 96.7347 71.2133 96.3027 71.192 95.8547C71.1707 95.4067 71.1173 94.9694 71.032 94.5427C70.9467 94.1161 70.824 93.7107 70.664 93.3267C70.504 92.9427 70.2853 92.6067 70.008 92.3187C69.7307 92.0307 69.3787 91.8014 68.952 91.6307C68.536 91.4601 68.0347 91.3747 67.448 91.3747C66.8613 91.3747 66.3547 91.4601 65.928 91.6307C65.512 91.8014 65.1653 92.0307 64.888 92.3187C64.6107 92.6067 64.392 92.9427 64.232 93.3267C64.072 93.7107 63.9493 94.1161 63.864 94.5427C63.7787 94.9694 63.7253 95.4067 63.704 95.8547C63.6827 96.3027 63.672 96.7347 63.672 97.1507ZM77.5866 102.719V91.3747H76.5466C76.472 91.8014 76.3333 92.1534 76.1306 92.4307C75.928 92.7081 75.6773 92.9267 75.3786 93.0867C75.0906 93.2467 74.7653 93.3587 74.4026 93.4227C74.04 93.4761 73.6666 93.5027 73.2826 93.5027V94.5907H76.2266V102.719H77.5866ZM82.1093 100.943V102.719H83.8853V100.943H82.1093ZM87.3464 97.1347C87.3464 96.8574 87.3464 96.5534 87.3464 96.2227C87.357 95.8814 87.3837 95.5454 87.4264 95.2147C87.4797 94.8734 87.549 94.5427 87.6344 94.2227C87.7304 93.9027 87.8637 93.6254 88.0344 93.3907C88.2157 93.1454 88.4397 92.9481 88.7064 92.7987C88.973 92.6494 89.2984 92.5747 89.6824 92.5747C90.0664 92.5747 90.3917 92.6494 90.6584 92.7987C90.925 92.9481 91.1437 93.1454 91.3144 93.3907C91.4957 93.6254 91.629 93.9027 91.7144 94.2227C91.8104 94.5427 91.8797 94.8734 91.9224 95.2147C91.9757 95.5454 92.0024 95.8814 92.0024 96.2227C92.013 96.5534 92.0184 96.8574 92.0184 97.1347C92.0184 97.5614 92.0024 98.0414 91.9704 98.5747C91.949 99.0974 91.8637 99.5934 91.7144 100.063C91.5757 100.521 91.3464 100.911 91.0264 101.231C90.7064 101.551 90.2584 101.711 89.6824 101.711C89.1064 101.711 88.6584 101.551 88.3384 101.231C88.0184 100.911 87.7837 100.521 87.6344 100.063C87.4957 99.5934 87.4104 99.0974 87.3784 98.5747C87.357 98.0414 87.3464 97.5614 87.3464 97.1347ZM85.9064 97.1507C85.9064 97.5667 85.917 97.9987 85.9384 98.4467C85.9597 98.8947 86.013 99.3321 86.0984 99.7587C86.1837 100.185 86.3064 100.591 86.4664 100.975C86.6264 101.348 86.845 101.679 87.1224 101.967C87.3997 102.255 87.7464 102.484 88.1624 102.655C88.589 102.815 89.0957 102.895 89.6824 102.895C90.2797 102.895 90.7864 102.815 91.2024 102.655C91.6184 102.484 91.965 102.255 92.2424 101.967C92.5197 101.679 92.7384 101.348 92.8984 100.975C93.0584 100.591 93.181 100.185 93.2664 99.7587C93.3517 99.3321 93.405 98.8947 93.4264 98.4467C93.4477 97.9987 93.4584 97.5667 93.4584 97.1507C93.4584 96.7347 93.4477 96.3027 93.4264 95.8547C93.405 95.4067 93.3517 94.9694 93.2664 94.5427C93.181 94.1161 93.0584 93.7107 92.8984 93.3267C92.7384 92.9427 92.5197 92.6067 92.2424 92.3187C91.965 92.0307 91.613 91.8014 91.1864 91.6307C90.7704 91.4601 90.269 91.3747 89.6824 91.3747C89.0957 91.3747 88.589 91.4601 88.1624 91.6307C87.7464 91.8014 87.3997 92.0307 87.1224 92.3187C86.845 92.6067 86.6264 92.9427 86.4664 93.3267C86.3064 93.7107 86.1837 94.1161 86.0984 94.5427C86.013 94.9694 85.9597 95.4067 85.9384 95.8547C85.917 96.3027 85.9064 96.7347 85.9064 97.1507ZM96.237 97.1347C96.237 96.8574 96.237 96.5534 96.237 96.2227C96.2477 95.8814 96.2743 95.5454 96.317 95.2147C96.3703 94.8734 96.4397 94.5427 96.525 94.2227C96.621 93.9027 96.7543 93.6254 96.925 93.3907C97.1063 93.1454 97.3303 92.9481 97.597 92.7987C97.8637 92.6494 98.189 92.5747 98.573 92.5747C98.957 92.5747 99.2823 92.6494 99.549 92.7987C99.8157 92.9481 100.034 93.1454 100.205 93.3907C100.386 93.6254 100.52 93.9027 100.605 94.2227C100.701 94.5427 100.77 94.8734 100.813 95.2147C100.866 95.5454 100.893 95.8814 100.893 96.2227C100.904 96.5534 100.909 96.8574 100.909 97.1347C100.909 97.5614 100.893 98.0414 100.861 98.5747C100.84 99.0974 100.754 99.5934 100.605 100.063C100.466 100.521 100.237 100.911 99.917 101.231C99.597 101.551 99.149 101.711 98.573 101.711C97.997 101.711 97.549 101.551 97.229 101.231C96.909 100.911 96.6743 100.521 96.525 100.063C96.3863 99.5934 96.301 99.0974 96.269 98.5747C96.2477 98.0414 96.237 97.5614 96.237 97.1347ZM94.797 97.1507C94.797 97.5667 94.8077 97.9987 94.829 98.4467C94.8503 98.8947 94.9037 99.3321 94.989 99.7587C95.0743 100.185 95.197 100.591 95.357 100.975C95.517 101.348 95.7357 101.679 96.013 101.967C96.2903 102.255 96.637 102.484 97.053 102.655C97.4797 102.815 97.9863 102.895 98.573 102.895C99.1703 102.895 99.677 102.815 100.093 102.655C100.509 102.484 100.856 102.255 101.133 101.967C101.41 101.679 101.629 101.348 101.789 100.975C101.949 100.591 102.072 100.185 102.157 99.7587C102.242 99.3321 102.296 98.8947 102.317 98.4467C102.338 97.9987 102.349 97.5667 102.349 97.1507C102.349 96.7347 102.338 96.3027 102.317 95.8547C102.296 95.4067 102.242 94.9694 102.157 94.5427C102.072 94.1161 101.949 93.7107 101.789 93.3267C101.629 92.9427 101.41 92.6067 101.133 92.3187C100.856 92.0307 100.504 91.8014 100.077 91.6307C99.661 91.4601 99.1597 91.3747 98.573 91.3747C97.9863 91.3747 97.4797 91.4601 97.053 91.6307C96.637 91.8014 96.2903 92.0307 96.013 92.3187C95.7357 92.6067 95.517 92.9427 95.357 93.3267C95.197 93.7107 95.0743 94.1161 94.989 94.5427C94.9037 94.9694 94.8503 95.4067 94.829 95.8547C94.8077 96.3027 94.797 96.7347 94.797 97.1507ZM108.269 97.6307V98.9107H112.893V97.6307H108.269ZM123.933 94.9427C123.89 95.3161 123.789 95.6521 123.629 95.9507C123.479 96.2494 123.287 96.5161 123.053 96.7507C122.818 96.9747 122.551 97.1667 122.253 97.3267C121.954 97.4761 121.645 97.5934 121.325 97.6787L125.149 102.719H123.325L120.493 98.9587C120.183 98.5427 119.901 98.2441 119.645 98.0627C119.399 97.8707 119.138 97.7747 118.861 97.7747V96.6067H119.805C120.135 96.6067 120.45 96.5854 120.749 96.5427C121.058 96.4894 121.335 96.4041 121.581 96.2867C121.826 96.1587 122.029 95.9881 122.189 95.7747C122.359 95.5614 122.461 95.2841 122.493 94.9427H118.573L119.053 93.9987H122.429C122.333 93.5614 122.125 93.2094 121.805 92.9427C121.485 92.6761 121.053 92.5321 120.509 92.5107H118.573L119.053 91.5667H126.077L125.597 92.5107H123.261C123.623 92.9161 123.842 93.4121 123.917 93.9987H126.077L125.597 94.9427H123.933ZM36.144 116.735V115.567H28.8V116.847H34.752C34.1547 117.476 33.5947 118.164 33.072 118.911C32.56 119.657 32.1067 120.452 31.712 121.295C31.3173 122.127 30.992 123.001 30.736 123.919C30.4907 124.825 30.336 125.759 30.272 126.719H31.792C31.8453 125.833 31.9947 124.921 32.24 123.983C32.4853 123.044 32.8 122.132 33.184 121.247C33.5787 120.361 34.0267 119.529 34.528 118.751C35.0293 117.972 35.568 117.3 36.144 116.735ZM48.8638 116.767V115.567H43.2638L42.2078 121.455L43.3758 121.519C43.6424 121.199 43.9464 120.943 44.2878 120.751C44.6398 120.548 45.0398 120.447 45.4878 120.447C45.8718 120.447 46.2184 120.511 46.5278 120.639C46.8478 120.767 47.1198 120.948 47.3438 121.183C47.5678 121.407 47.7384 121.679 47.8558 121.999C47.9838 122.308 48.0478 122.649 48.0478 123.023C48.0478 123.471 47.9838 123.865 47.8558 124.207C47.7278 124.537 47.5518 124.815 47.3278 125.039C47.1144 125.263 46.8584 125.433 46.5598 125.551C46.2718 125.657 45.9678 125.711 45.6478 125.711C45.3064 125.711 44.9918 125.663 44.7038 125.567C44.4264 125.46 44.1811 125.316 43.9678 125.135C43.7651 124.943 43.5998 124.724 43.4718 124.479C43.3544 124.223 43.2851 123.951 43.2638 123.663H41.9038C41.9144 124.175 42.0158 124.633 42.2078 125.039C42.3998 125.444 42.6611 125.785 42.9918 126.063C43.3224 126.329 43.7011 126.537 44.1278 126.687C44.5651 126.825 45.0291 126.895 45.5198 126.895C46.1811 126.895 46.7571 126.793 47.2478 126.591C47.7491 126.377 48.1651 126.095 48.4958 125.743C48.8264 125.391 49.0718 124.991 49.2318 124.543C49.4024 124.084 49.4878 123.615 49.4878 123.135C49.4878 122.484 49.3918 121.919 49.1998 121.439C49.0078 120.948 48.7464 120.543 48.4158 120.223C48.0851 119.892 47.6958 119.647 47.2478 119.487C46.7998 119.327 46.3251 119.247 45.8238 119.247C45.4398 119.247 45.0504 119.316 44.6558 119.455C44.2718 119.583 43.9571 119.785 43.7118 120.063L43.6798 120.031L44.2878 116.767H48.8638ZM52.3464 121.135C52.3464 120.857 52.3464 120.553 52.3464 120.223C52.357 119.881 52.3837 119.545 52.4264 119.215C52.4797 118.873 52.549 118.543 52.6344 118.223C52.7304 117.903 52.8637 117.625 53.0344 117.391C53.2157 117.145 53.4397 116.948 53.7064 116.799C53.973 116.649 54.2984 116.575 54.6824 116.575C55.0664 116.575 55.3917 116.649 55.6584 116.799C55.925 116.948 56.1437 117.145 56.3144 117.391C56.4957 117.625 56.629 117.903 56.7144 118.223C56.8104 118.543 56.8797 118.873 56.9224 119.215C56.9757 119.545 57.0024 119.881 57.0024 120.223C57.013 120.553 57.0184 120.857 57.0184 121.135C57.0184 121.561 57.0024 122.041 56.9704 122.575C56.949 123.097 56.8637 123.593 56.7144 124.063C56.5757 124.521 56.3464 124.911 56.0264 125.231C55.7064 125.551 55.2584 125.711 54.6824 125.711C54.1064 125.711 53.6584 125.551 53.3384 125.231C53.0184 124.911 52.7837 124.521 52.6344 124.063C52.4957 123.593 52.4104 123.097 52.3784 122.575C52.357 122.041 52.3464 121.561 52.3464 121.135ZM50.9064 121.151C50.9064 121.567 50.917 121.999 50.9384 122.447C50.9597 122.895 51.013 123.332 51.0984 123.759C51.1837 124.185 51.3064 124.591 51.4664 124.975C51.6264 125.348 51.845 125.679 52.1224 125.967C52.3997 126.255 52.7464 126.484 53.1624 126.655C53.589 126.815 54.0957 126.895 54.6824 126.895C55.2797 126.895 55.7864 126.815 56.2024 126.655C56.6184 126.484 56.965 126.255 57.2424 125.967C57.5197 125.679 57.7384 125.348 57.8984 124.975C58.0584 124.591 58.181 124.185 58.2664 123.759C58.3517 123.332 58.405 122.895 58.4264 122.447C58.4477 121.999 58.4584 121.567 58.4584 121.151C58.4584 120.735 58.4477 120.303 58.4264 119.855C58.405 119.407 58.3517 118.969 58.2664 118.543C58.181 118.116 58.0584 117.711 57.8984 117.327C57.7384 116.943 57.5197 116.607 57.2424 116.319C56.965 116.031 56.613 115.801 56.1864 115.631C55.7704 115.46 55.269 115.375 54.6824 115.375C54.0957 115.375 53.589 115.46 53.1624 115.631C52.7464 115.801 52.3997 116.031 52.1224 116.319C51.845 116.607 51.6264 116.943 51.4664 117.327C51.3064 117.711 51.1837 118.116 51.0984 118.543C51.013 118.969 50.9597 119.407 50.9384 119.855C50.917 120.303 50.9064 120.735 50.9064 121.151ZM61.237 121.135C61.237 120.857 61.237 120.553 61.237 120.223C61.2477 119.881 61.2743 119.545 61.317 119.215C61.3703 118.873 61.4397 118.543 61.525 118.223C61.621 117.903 61.7543 117.625 61.925 117.391C62.1063 117.145 62.3303 116.948 62.597 116.799C62.8637 116.649 63.189 116.575 63.573 116.575C63.957 116.575 64.2823 116.649 64.549 116.799C64.8157 116.948 65.0343 117.145 65.205 117.391C65.3863 117.625 65.5197 117.903 65.605 118.223C65.701 118.543 65.7703 118.873 65.813 119.215C65.8663 119.545 65.893 119.881 65.893 120.223C65.9037 120.553 65.909 120.857 65.909 121.135C65.909 121.561 65.893 122.041 65.861 122.575C65.8397 123.097 65.7543 123.593 65.605 124.063C65.4663 124.521 65.237 124.911 64.917 125.231C64.597 125.551 64.149 125.711 63.573 125.711C62.997 125.711 62.549 125.551 62.229 125.231C61.909 124.911 61.6743 124.521 61.525 124.063C61.3863 123.593 61.301 123.097 61.269 122.575C61.2477 122.041 61.237 121.561 61.237 121.135ZM59.797 121.151C59.797 121.567 59.8077 121.999 59.829 122.447C59.8503 122.895 59.9037 123.332 59.989 123.759C60.0743 124.185 60.197 124.591 60.357 124.975C60.517 125.348 60.7357 125.679 61.013 125.967C61.2903 126.255 61.637 126.484 62.053 126.655C62.4797 126.815 62.9863 126.895 63.573 126.895C64.1703 126.895 64.677 126.815 65.093 126.655C65.509 126.484 65.8557 126.255 66.133 125.967C66.4103 125.679 66.629 125.348 66.789 124.975C66.949 124.591 67.0717 124.185 67.157 123.759C67.2423 123.332 67.2957 122.895 67.317 122.447C67.3383 121.999 67.349 121.567 67.349 121.151C67.349 120.735 67.3383 120.303 67.317 119.855C67.2957 119.407 67.2423 118.969 67.157 118.543C67.0717 118.116 66.949 117.711 66.789 117.327C66.629 116.943 66.4103 116.607 66.133 116.319C65.8557 116.031 65.5037 115.801 65.077 115.631C64.661 115.46 64.1597 115.375 63.573 115.375C62.9863 115.375 62.4797 115.46 62.053 115.631C61.637 115.801 61.2903 116.031 61.013 116.319C60.7357 116.607 60.517 116.943 60.357 117.327C60.197 117.711 60.0743 118.116 59.989 118.543C59.9037 118.969 59.8503 119.407 59.829 119.855C59.8077 120.303 59.797 120.735 59.797 121.151ZM69.3436 124.943V126.719H71.1196V124.943H69.3436ZM74.5807 121.135C74.5807 120.857 74.5807 120.553 74.5807 120.223C74.5914 119.881 74.6181 119.545 74.6608 119.215C74.7141 118.873 74.7834 118.543 74.8688 118.223C74.9648 117.903 75.0981 117.625 75.2688 117.391C75.4501 117.145 75.6741 116.948 75.9408 116.799C76.2074 116.649 76.5328 116.575 76.9168 116.575C77.3008 116.575 77.6261 116.649 77.8928 116.799C78.1594 116.948 78.3781 117.145 78.5488 117.391C78.7301 117.625 78.8634 117.903 78.9488 118.223C79.0448 118.543 79.1141 118.873 79.1568 119.215C79.2101 119.545 79.2368 119.881 79.2368 120.223C79.2474 120.553 79.2528 120.857 79.2528 121.135C79.2528 121.561 79.2368 122.041 79.2048 122.575C79.1834 123.097 79.0981 123.593 78.9488 124.063C78.8101 124.521 78.5808 124.911 78.2608 125.231C77.9408 125.551 77.4928 125.711 76.9168 125.711C76.3408 125.711 75.8928 125.551 75.5728 125.231C75.2528 124.911 75.0181 124.521 74.8688 124.063C74.7301 123.593 74.6448 123.097 74.6128 122.575C74.5914 122.041 74.5807 121.561 74.5807 121.135ZM73.1408 121.151C73.1408 121.567 73.1514 121.999 73.1728 122.447C73.1941 122.895 73.2474 123.332 73.3328 123.759C73.4181 124.185 73.5408 124.591 73.7008 124.975C73.8608 125.348 74.0794 125.679 74.3568 125.967C74.6341 126.255 74.9808 126.484 75.3968 126.655C75.8234 126.815 76.3301 126.895 76.9168 126.895C77.5141 126.895 78.0208 126.815 78.4368 126.655C78.8528 126.484 79.1994 126.255 79.4768 125.967C79.7541 125.679 79.9728 125.348 80.1328 124.975C80.2928 124.591 80.4154 124.185 80.5008 123.759C80.5861 123.332 80.6394 122.895 80.6608 122.447C80.6821 121.999 80.6927 121.567 80.6927 121.151C80.6927 120.735 80.6821 120.303 80.6608 119.855C80.6394 119.407 80.5861 118.969 80.5008 118.543C80.4154 118.116 80.2928 117.711 80.1328 117.327C79.9728 116.943 79.7541 116.607 79.4768 116.319C79.1994 116.031 78.8474 115.801 78.4208 115.631C78.0048 115.46 77.5034 115.375 76.9168 115.375C76.3301 115.375 75.8234 115.46 75.3968 115.631C74.9808 115.801 74.6341 116.031 74.3568 116.319C74.0794 116.607 73.8608 116.943 73.7008 117.327C73.5408 117.711 73.4181 118.116 73.3328 118.543C73.2474 118.969 73.1941 119.407 73.1728 119.855C73.1514 120.303 73.1408 120.735 73.1408 121.151ZM83.4714 121.135C83.4714 120.857 83.4714 120.553 83.4714 120.223C83.482 119.881 83.5087 119.545 83.5514 119.215C83.6047 118.873 83.674 118.543 83.7594 118.223C83.8554 117.903 83.9887 117.625 84.1594 117.391C84.3407 117.145 84.5647 116.948 84.8314 116.799C85.098 116.649 85.4234 116.575 85.8074 116.575C86.1914 116.575 86.5167 116.649 86.7834 116.799C87.05 116.948 87.2687 117.145 87.4394 117.391C87.6207 117.625 87.754 117.903 87.8394 118.223C87.9354 118.543 88.0047 118.873 88.0474 119.215C88.1007 119.545 88.1274 119.881 88.1274 120.223C88.138 120.553 88.1434 120.857 88.1434 121.135C88.1434 121.561 88.1274 122.041 88.0954 122.575C88.074 123.097 87.9887 123.593 87.8394 124.063C87.7007 124.521 87.4714 124.911 87.1514 125.231C86.8314 125.551 86.3834 125.711 85.8074 125.711C85.2314 125.711 84.7834 125.551 84.4634 125.231C84.1434 124.911 83.9087 124.521 83.7594 124.063C83.6207 123.593 83.5354 123.097 83.5034 122.575C83.482 122.041 83.4714 121.561 83.4714 121.135ZM82.0314 121.151C82.0314 121.567 82.042 121.999 82.0634 122.447C82.0847 122.895 82.138 123.332 82.2234 123.759C82.3087 124.185 82.4314 124.591 82.5914 124.975C82.7514 125.348 82.97 125.679 83.2474 125.967C83.5247 126.255 83.8714 126.484 84.2874 126.655C84.714 126.815 85.2207 126.895 85.8074 126.895C86.4047 126.895 86.9114 126.815 87.3274 126.655C87.7434 126.484 88.09 126.255 88.3674 125.967C88.6447 125.679 88.8634 125.348 89.0234 124.975C89.1834 124.591 89.306 124.185 89.3914 123.759C89.4767 123.332 89.53 122.895 89.5514 122.447C89.5727 121.999 89.5834 121.567 89.5834 121.151C89.5834 120.735 89.5727 120.303 89.5514 119.855C89.53 119.407 89.4767 118.969 89.3914 118.543C89.306 118.116 89.1834 117.711 89.0234 117.327C88.8634 116.943 88.6447 116.607 88.3674 116.319C88.09 116.031 87.738 115.801 87.3114 115.631C86.8954 115.46 86.394 115.375 85.8074 115.375C85.2207 115.375 84.714 115.46 84.2874 115.631C83.8714 115.801 83.5247 116.031 83.2474 116.319C82.97 116.607 82.7514 116.943 82.5914 117.327C82.4314 117.711 82.3087 118.116 82.2234 118.543C82.138 118.969 82.0847 119.407 82.0634 119.855C82.042 120.303 82.0314 120.735 82.0314 121.151Z" fill="#111111"/>
<rect x="2.5" y="88.2188" width="19" height="19" rx="3.5" stroke="#CCCCCC"/>
</svg>
